<?xml version="1.0" standalone="no"?>
<!DOCTYPE svg PUBLIC "-//W3C//DTD SVG 20010904//EN"
 "http://www.w3.org/TR/2001/REC-SVG-20010904/DTD/svg10.dtd">
<svg version="1.0" xmlns="http://www.w3.org/2000/svg"
 width="4000.000000pt" height="5333.000000pt" viewBox="0 0 4000.000000 5333.000000"
 preserveAspectRatio="xMidYMid meet">

<g transform="translate(0.000000,5333.000000) scale(0.100000,-0.100000)"
fill="#000000" stroke="none">
<path d="M27115 32533 c-22 -21 -15 -82 20 -203 14 -47 28 -112 32 -144 l6
-59 -44 27 c-81 50 -112 61 -180 61 -57 0 -71 -4 -102 -28 -72 -55 -117 -192
-97 -297 18 -97 66 -172 132 -206 63 -33 188 8 273 89 26 26 51 44 55 42 4 -3
11 -17 15 -32 13 -53 56 -78 94 -54 11 7 11 25 2 97 -6 49 -15 148 -21 219
-21 248 -53 385 -110 463 -33 46 -49 51 -75 25z m-83 -437 c20 -7 60 -28 88
-46 55 -35 61 -54 37 -113 -33 -78 -138 -157 -209 -157 -45 0 -72 30 -94 106
-12 43 -13 61 -4 96 16 56 46 97 84 114 39 16 52 17 98 0z"/>
<path d="M25713 32390 c-57 -12 -96 -34 -127 -70 -34 -42 -39 -107 -10 -162
19 -38 57 -64 224 -153 80 -44 161 -89 181 -101 65 -41 56 -110 -17 -134 -44
-15 -258 -8 -317 10 -50 15 -114 73 -121 111 -3 16 -9 43 -12 59 -7 37 -27 38
-59 5 -46 -45 -29 -112 46 -179 76 -69 201 -109 344 -110 196 -1 307 81 280
205 -13 60 -82 113 -257 199 -173 85 -228 126 -228 172 0 39 35 58 127 70 l78
9 78 -41 c88 -46 130 -50 135 -12 5 34 -53 87 -118 106 -68 20 -172 28 -227
16z"/>
<path d="M27537 32286 c-92 -33 -158 -121 -177 -235 -26 -155 41 -281 185
-348 52 -24 72 -28 145 -27 102 1 186 29 225 76 14 17 24 32 23 34 -2 2 -57
-1 -121 -6 -132 -10 -207 -2 -272 30 -50 24 -59 34 -79 81 l-14 34 76 1 c162
1 277 97 258 217 -21 127 -124 187 -249 143z m108 -78 c30 -14 55 -55 55 -92
0 -49 -104 -106 -195 -106 l-55 0 0 32 c0 70 59 147 128 168 38 11 38 11 67
-2z"/>
<path d="M28647 32286 c-92 -33 -158 -121 -177 -235 -26 -155 41 -281 185
-348 52 -24 72 -28 145 -27 102 1 186 29 225 76 14 17 24 32 23 34 -2 2 -57
-1 -121 -6 -132 -10 -207 -2 -272 30 -50 24 -59 34 -79 81 l-14 34 76 1 c162
1 277 97 258 217 -21 127 -124 187 -249 143z m108 -78 c30 -14 55 -55 55 -92
0 -49 -104 -106 -195 -106 l-55 0 0 32 c0 70 59 147 128 168 38 11 38 11 67
-2z"/>
<path d="M30277 32286 c-92 -33 -158 -121 -177 -235 -26 -155 41 -281 185
-348 52 -24 72 -28 145 -27 102 1 186 29 225 76 14 17 24 32 23 34 -2 2 -57
-1 -121 -6 -132 -10 -207 -2 -272 30 -50 24 -59 34 -79 81 l-14 34 76 1 c162
1 277 97 258 217 -21 127 -124 187 -249 143z m108 -78 c30 -14 55 -55 55 -92
0 -49 -104 -106 -195 -106 l-55 0 0 32 c0 70 59 147 128 168 38 11 38 11 67
-2z"/>
<path d="M26360 32273 c-32 -12 -60 -47 -60 -74 0 -32 28 -46 59 -30 56 31
145 -15 183 -94 12 -25 20 -47 17 -49 -2 -3 -31 5 -64 16 -161 54 -340 -36
-338 -171 2 -123 106 -193 288 -194 71 0 107 6 171 27 45 14 86 32 92 39 13
16 -2 199 -21 253 -42 117 -107 205 -182 250 -42 24 -117 39 -145 27z m161
-331 c37 -19 64 -43 87 -76 17 -27 32 -51 32 -55 0 -10 -163 -31 -231 -31
-135 2 -210 73 -142 136 61 56 173 68 254 26z"/>
<path d="M31430 32273 c-32 -12 -60 -47 -60 -74 0 -32 28 -46 59 -30 56 31
145 -15 183 -94 12 -25 20 -47 17 -49 -2 -3 -31 5 -64 16 -161 54 -340 -36
-338 -171 2 -123 106 -193 288 -194 71 0 107 6 171 27 45 14 86 32 92 39 13
16 -2 199 -21 253 -42 117 -107 205 -182 250 -42 24 -117 39 -145 27z m161
-331 c37 -19 64 -43 87 -76 17 -27 32 -51 32 -55 0 -10 -163 -31 -231 -31
-135 2 -210 73 -142 136 61 56 173 68 254 26z"/>
<path d="M29645 32216 c-123 -38 -156 -134 -80 -224 35 -42 87 -60 219 -76
154 -19 197 -42 183 -98 -10 -37 -47 -48 -157 -48 -103 0 -161 16 -217 60 -30
24 -66 26 -83 5 -19 -23 26 -84 86 -117 99 -54 300 -62 391 -17 61 31 86 66
86 122 0 107 -62 148 -258 172 -150 19 -188 35 -193 82 -3 27 1 32 38 47 50
20 112 21 150 1 25 -13 28 -18 23 -54 -5 -33 -2 -40 14 -45 71 -23 95 90 33
152 -49 49 -149 65 -235 38z"/>
<path d="M32649 32188 c-8 -29 -9 -85 -5 -170 l6 -127 -36 -37 c-105 -104
-221 -77 -274 64 -19 50 -33 111 -55 245 -5 32 -10 38 -28 35 -12 -2 -27 -13
-33 -25 l-11 -23 -23 25 c-47 51 -159 59 -254 20 -34 -14 -70 -22 -82 -19 -39
10 -48 -24 -34 -138 14 -122 41 -230 76 -309 23 -51 30 -59 48 -53 53 16 54
45 4 204 -17 52 -31 119 -32 148 -1 47 2 57 27 78 33 28 68 30 147 9 30 -8 69
-15 87 -15 31 0 32 -1 38 -57 20 -169 109 -306 218 -338 28 -8 56 -15 62 -15
7 0 48 18 91 40 54 27 82 36 89 29 13 -13 10 -179 -5 -291 -24 -184 -63 -258
-135 -258 -52 0 -90 23 -176 107 -78 76 -101 84 -115 41 -26 -84 141 -233 276
-246 66 -6 93 2 131 40 65 66 103 196 114 398 14 246 -42 661 -92 677 -7 3
-17 -14 -24 -39z"/>
<path d="M28122 32197 c-48 -15 -119 -82 -149 -141 -32 -63 -36 -166 -8 -234
22 -55 92 -116 152 -133 66 -19 237 -17 284 3 41 18 57 53 30 67 -9 5 -63 9
-121 9 -58 0 -124 5 -146 11 -81 22 -124 76 -124 156 0 116 89 209 184 191 44
-8 66 -35 73 -85 6 -42 10 -46 29 -33 32 21 45 103 23 144 -25 47 -145 72
-227 45z"/>
<path d="M30850 32174 c-61 -29 -78 -33 -97 -25 -47 22 -53 9 -53 -123 0 -196
37 -323 101 -345 57 -20 56 -30 17 170 -26 132 -20 169 32 221 36 36 62 45
120 39 27 -3 86 -78 105 -133 11 -34 19 -96 22 -170 5 -115 6 -117 31 -123 45
-11 66 23 70 113 6 131 -40 274 -112 350 -68 73 -125 80 -236 26z"/>
<path d="M32993 32165 c-151 -47 -232 -167 -203 -301 14 -66 40 -107 90 -143
132 -95 354 -41 421 104 27 58 25 147 -5 210 -26 56 -86 118 -129 134 -38 15
-122 13 -174 -4z m199 -146 c59 -56 50 -120 -28 -189 -72 -63 -147 -77 -214
-39 -105 59 -104 206 2 260 93 47 167 37 240 -32z"/>
<path d="M33135 30833 c-22 -21 -15 -82 20 -203 14 -47 28 -112 32 -144 l6
-59 -44 27 c-81 50 -112 61 -180 61 -57 0 -71 -4 -102 -28 -72 -55 -117 -192
-97 -297 18 -97 66 -172 132 -206 63 -33 188 8 273 89 26 26 51 44 55 42 4 -3
11 -17 15 -32 13 -53 56 -78 94 -54 11 7 11 25 2 97 -6 49 -15 148 -21 219
-21 248 -53 385 -110 463 -33 46 -49 51 -75 25z m-83 -437 c20 -7 60 -28 88
-46 55 -35 61 -54 37 -113 -33 -78 -138 -157 -209 -157 -45 0 -72 30 -94 106
-12 43 -13 61 -4 96 16 56 46 97 84 114 39 16 52 17 98 0z"/>
<path d="M33815 30613 c0 -25 -4 -28 -37 -31 -30 -3 -40 1 -54 22 -22 35 -64
36 -64 1 0 -83 86 -128 175 -91 37 16 68 64 63 99 -2 18 -11 23 -43 25 -39 3
-41 2 -40 -25z"/>
<path d="M25283 30590 c-89 -18 -135 -60 -114 -106 17 -39 55 -41 96 -5 33 28
42 31 105 31 79 0 100 -13 100 -63 0 -39 -36 -115 -58 -121 -9 -2 -51 -7 -92
-11 -130 -11 -132 -11 -128 -53 l3 -37 68 2 c37 0 67 -1 67 -3 0 -3 -18 -27
-40 -55 -75 -95 -63 -156 36 -185 46 -13 68 -14 132 -5 146 20 212 51 212 100
0 52 -20 57 -112 27 -95 -31 -181 -33 -186 -5 -2 9 19 44 47 77 49 58 52 60
110 67 40 5 65 13 77 26 24 27 8 53 -36 57 -31 3 -32 5 -24 35 5 18 8 60 9 94
0 52 -4 66 -25 88 -14 15 -39 34 -57 41 -35 15 -123 17 -190 4z"/>
<path d="M30217 30586 c-92 -33 -158 -121 -177 -235 -26 -155 41 -281 185
-348 52 -24 72 -28 145 -27 102 1 186 29 225 76 14 17 24 32 23 34 -2 2 -57
-1 -121 -6 -132 -10 -207 -2 -272 30 -50 24 -59 34 -79 81 l-14 34 76 1 c162
1 277 97 258 217 -21 127 -124 187 -249 143z m108 -78 c30 -14 55 -55 55 -92
0 -49 -104 -106 -195 -106 l-55 0 0 32 c0 70 59 147 128 168 38 11 38 11 67
-2z"/>
<path d="M32343 30590 c-89 -18 -135 -60 -114 -106 17 -39 55 -41 96 -5 33 28
42 31 105 31 79 0 100 -13 100 -63 0 -39 -36 -115 -58 -121 -9 -2 -51 -7 -92
-11 -130 -11 -132 -11 -128 -53 l3 -37 68 2 c37 0 67 -1 67 -3 0 -3 -18 -27
-40 -55 -75 -95 -63 -156 36 -185 46 -13 68 -14 132 -5 146 20 212 51 212 100
0 52 -20 57 -112 27 -95 -31 -181 -33 -186 -5 -2 9 19 44 47 77 49 58 52 60
110 67 40 5 65 13 77 26 24 27 8 53 -36 57 -31 3 -32 5 -24 35 5 18 8 60 9 94
0 52 -4 66 -25 88 -14 15 -39 34 -57 41 -35 15 -123 17 -190 4z"/>
<path d="M24770 30573 c-32 -12 -60 -47 -60 -74 0 -32 28 -46 59 -30 56 31
145 -15 183 -94 12 -25 20 -47 17 -49 -2 -3 -31 5 -64 16 -161 54 -340 -36
-338 -171 2 -123 106 -193 288 -194 71 0 107 6 171 27 45 14 86 32 92 39 13
16 -2 199 -21 253 -42 117 -107 205 -182 250 -42 24 -117 39 -145 27z m161
-331 c37 -19 64 -43 87 -76 17 -27 32 -51 32 -55 0 -10 -163 -31 -231 -31
-135 2 -210 73 -142 136 61 56 173 68 254 26z"/>
<path d="M31840 30573 c-32 -12 -60 -47 -60 -74 0 -32 28 -46 59 -30 56 31
145 -15 183 -94 12 -25 20 -47 17 -49 -2 -3 -31 5 -64 16 -161 54 -340 -36
-338 -171 2 -123 106 -193 288 -194 71 0 107 6 171 27 45 14 86 32 92 39 13
16 -2 199 -21 253 -42 117 -107 205 -182 250 -42 24 -117 39 -145 27z m161
-331 c37 -19 64 -43 87 -76 17 -27 32 -51 32 -55 0 -10 -163 -31 -231 -31
-135 2 -210 73 -142 136 61 56 173 68 254 26z"/>
<path d="M28062 30543 c-62 -25 -52 -246 18 -390 36 -73 84 -118 141 -133 67
-18 105 -5 171 58 56 53 61 56 73 38 8 -10 17 -38 21 -62 8 -59 24 -77 64 -76
58 1 59 19 9 149 -17 43 -29 94 -29 121 -1 80 -19 194 -35 219 -17 26 -47 30
-65 8 -7 -9 -13 -56 -14 -123 -3 -104 -4 -111 -34 -155 -41 -58 -78 -87 -113
-87 -88 0 -169 177 -155 337 8 91 -5 115 -52 96z"/>
<path d="M24439 30488 c-8 -29 -9 -85 -5 -170 l6 -127 -36 -37 c-105 -104
-221 -77 -274 64 -19 50 -33 111 -55 245 -5 32 -10 38 -28 35 -36 -5 -49 -44
-42 -132 13 -181 101 -326 218 -361 28 -8 56 -15 62 -15 7 0 48 18 91 40 54
27 82 36 89 29 13 -13 10 -179 -5 -291 -24 -184 -63 -258 -135 -258 -52 0 -90
23 -176 107 -78 76 -101 84 -115 41 -26 -84 141 -233 276 -246 66 -6 93 2 131
40 65 66 103 196 114 398 14 246 -42 661 -92 677 -7 3 -17 -14 -24 -39z"/>
<path d="M26339 30488 c-8 -29 -9 -85 -5 -170 l6 -127 -36 -37 c-105 -104
-221 -77 -274 64 -19 50 -33 111 -55 245 -5 32 -10 38 -28 35 -36 -5 -49 -44
-42 -132 13 -181 101 -326 218 -361 28 -8 56 -15 62 -15 7 0 48 18 91 40 54
27 82 36 89 29 13 -13 10 -179 -5 -291 -24 -184 -63 -258 -135 -258 -52 0 -90
23 -176 107 -78 76 -101 84 -115 41 -26 -84 141 -233 276 -246 66 -6 93 2 131
40 65 66 103 196 114 398 14 246 -42 661 -92 677 -7 3 -17 -14 -24 -39z"/>
<path d="M27575 30516 c-123 -38 -156 -134 -80 -224 35 -42 87 -60 219 -76
154 -19 197 -42 183 -98 -10 -37 -47 -48 -157 -48 -103 0 -161 16 -217 60 -30
24 -66 26 -83 5 -19 -23 26 -84 86 -117 99 -54 300 -62 391 -17 61 31 86 66
86 122 0 107 -62 148 -258 172 -150 19 -188 35 -193 82 -3 27 1 32 38 47 50
20 112 21 150 1 25 -13 28 -18 23 -54 -5 -33 -2 -40 14 -45 71 -23 95 90 33
152 -49 49 -149 65 -235 38z"/>
<path d="M31509 30488 c-8 -29 -9 -85 -5 -170 l6 -127 -36 -37 c-105 -104
-221 -77 -274 64 -19 50 -33 111 -55 245 -5 32 -10 38 -28 35 -36 -5 -49 -44
-42 -132 13 -181 101 -326 218 -361 28 -8 56 -15 62 -15 7 0 48 18 91 40 54
27 82 36 89 29 13 -13 10 -179 -5 -291 -24 -184 -63 -258 -135 -258 -52 0 -90
23 -176 107 -78 76 -101 84 -115 41 -26 -84 141 -233 276 -246 66 -6 93 2 131
40 65 66 103 196 114 398 14 246 -42 661 -92 677 -7 3 -17 -14 -24 -39z"/>
<path d="M27156 30495 c-34 -14 -70 -22 -82 -19 -39 10 -48 -24 -34 -138 14
-122 41 -230 76 -309 23 -51 30 -59 48 -53 53 16 54 45 4 204 -17 52 -31 119
-32 148 -1 47 2 57 27 78 33 28 68 30 147 9 30 -8 70 -15 88 -15 29 0 32 3 32
28 0 83 -148 119 -274 67z"/>
<path d="M25744 30484 c-9 -36 5 -273 22 -372 23 -131 54 -171 97 -124 24 26
22 91 -8 256 -14 77 -25 163 -25 191 0 58 -12 75 -52 75 -21 0 -29 -6 -34 -26z"/>
<path d="M28770 30474 c-61 -29 -78 -33 -97 -25 -47 22 -53 9 -53 -123 0 -196
37 -323 101 -345 57 -20 56 -30 17 170 -26 132 -20 169 32 221 36 36 62 45
120 39 27 -3 86 -78 105 -133 11 -34 19 -96 22 -170 5 -115 6 -117 31 -123 45
-11 66 23 70 113 6 131 -40 274 -112 350 -68 73 -125 80 -236 26z"/>
<path d="M33424 30484 c-9 -36 5 -273 22 -372 23 -131 54 -171 97 -124 24 26
22 91 -8 256 -14 77 -25 163 -25 191 0 58 -12 75 -52 75 -21 0 -29 -6 -34 -26z"/>
<path d="M34054 30484 c-9 -36 5 -273 22 -372 23 -131 54 -171 97 -124 24 26
22 91 -8 256 -14 77 -25 163 -25 191 0 58 -12 75 -52 75 -21 0 -29 -6 -34 -26z"/>
<path d="M34380 30474 c-61 -29 -78 -33 -97 -25 -47 22 -53 9 -53 -123 0 -196
37 -323 101 -345 57 -20 56 -30 17 170 -26 132 -20 169 32 221 36 36 62 45
120 39 27 -3 86 -78 105 -133 11 -34 19 -96 22 -170 5 -115 6 -117 31 -123 45
-11 66 23 70 113 6 131 -40 274 -112 350 -68 73 -125 80 -236 26z"/>
<path d="M26683 30465 c-151 -47 -232 -167 -203 -301 14 -66 40 -107 90 -143
132 -95 354 -41 421 104 27 58 25 147 -5 210 -26 56 -86 118 -129 134 -38 15
-122 13 -174 -4z m199 -146 c59 -56 50 -120 -28 -189 -72 -63 -147 -77 -214
-39 -105 59 -104 206 2 260 93 47 167 37 240 -32z"/>
<path d="M33755 30456 c-65 -30 -117 -86 -150 -159 -33 -71 -37 -156 -12 -204
44 -83 152 -116 236 -73 24 12 45 20 47 17 2 -2 11 -51 20 -108 19 -123 15
-286 -8 -340 -20 -45 -55 -79 -83 -79 -37 0 -138 30 -207 62 -87 40 -113 67
-110 117 3 47 -15 65 -50 52 -65 -24 -45 -138 37 -209 74 -66 226 -122 327
-122 80 0 119 24 152 93 49 102 56 178 42 500 -13 284 -37 389 -102 446 -42
37 -72 39 -139 7z m105 -102 c18 -47 12 -165 -10 -202 -34 -56 -113 -70 -155
-27 -69 68 19 255 121 255 28 0 36 -5 44 -26z"/>
<path d="M29586 30417 c-17 -25 -18 -22 100 -263 56 -113 109 -184 137 -184
28 0 66 65 118 201 28 74 56 141 64 149 13 15 18 34 16 58 -1 13 -48 16 -76 6
-18 -7 -72 -109 -105 -201 -12 -35 -27 -60 -31 -57 -13 8 -61 107 -89 182 -24
66 -76 132 -103 132 -9 0 -23 -10 -31 -23z"/>
<path d="M28882 29040 c-40 -17 -42 -44 -12 -227 15 -94 31 -208 35 -254 12
-152 40 -214 118 -256 25 -14 55 -18 137 -18 95 0 111 3 163 28 38 19 63 39
74 60 21 40 22 123 1 162 -55 103 -205 173 -349 163 l-67 -5 -6 31 c-6 32 -36
292 -36 314 0 14 -25 15 -58 2z m311 -457 c128 -49 166 -138 77 -183 -46 -24
-134 -27 -183 -6 -18 7 -46 28 -61 47 -25 29 -28 39 -24 88 6 70 24 85 96 77
28 -4 71 -14 95 -23z"/>
<path d="M29443 29003 c-16 -6 -17 -65 -1 -81 16 -16 88 -16 89 1 5 55 -43 99
-88 80z"/>
<path d="M32402 28953 c-10 -25 -9 -557 1 -615 8 -44 10 -48 37 -48 52 0 55
17 54 320 0 151 -3 287 -7 302 -14 52 -69 79 -85 41z"/>
<path d="M25347 28896 c-92 -33 -158 -121 -177 -235 -26 -155 41 -281 185
-348 52 -24 72 -28 145 -27 102 1 186 29 225 76 14 17 24 32 23 34 -2 2 -57
-1 -121 -6 -132 -10 -207 -2 -272 30 -50 24 -59 34 -79 81 l-14 34 76 1 c162
1 277 97 258 217 -21 127 -124 187 -249 143z m108 -78 c30 -14 55 -55 55 -92
0 -49 -104 -106 -195 -106 l-55 0 0 32 c0 70 59 147 128 168 38 11 38 11 67
-2z"/>
<path d="M31753 28900 c-89 -18 -135 -60 -114 -106 17 -39 55 -41 96 -5 33 28
42 31 105 31 79 0 100 -13 100 -63 0 -39 -36 -115 -58 -121 -9 -2 -51 -7 -92
-11 -130 -11 -132 -11 -128 -53 l3 -37 68 2 c37 0 67 -1 67 -3 0 -3 -18 -27
-40 -55 -75 -95 -63 -156 36 -185 46 -13 68 -14 132 -5 146 20 212 51 212 100
0 52 -20 57 -112 27 -95 -31 -181 -33 -186 -5 -2 9 19 44 47 77 49 58 52 60
110 67 40 5 65 13 77 26 24 27 8 53 -36 57 -31 3 -32 5 -24 35 5 18 8 60 9 94
0 52 -4 66 -25 88 -14 15 -39 34 -57 41 -35 15 -123 17 -190 4z"/>
<path d="M26500 28883 c-32 -12 -60 -47 -60 -74 0 -32 28 -46 59 -30 56 31
145 -15 183 -94 12 -25 20 -47 17 -49 -2 -3 -31 5 -64 16 -161 54 -340 -36
-338 -171 2 -123 106 -193 288 -194 71 0 107 6 171 27 45 14 86 32 92 39 13
16 -2 199 -21 253 -42 117 -107 205 -182 250 -42 24 -117 39 -145 27z m161
-331 c37 -19 64 -43 87 -76 17 -27 32 -51 32 -55 0 -10 -163 -31 -231 -31
-135 2 -210 73 -142 136 61 56 173 68 254 26z"/>
<path d="M31250 28883 c-32 -12 -60 -47 -60 -74 0 -32 28 -46 59 -30 56 31
145 -15 183 -94 12 -25 20 -47 17 -49 -2 -3 -31 5 -64 16 -161 54 -340 -36
-338 -171 2 -123 106 -193 288 -194 71 0 107 6 171 27 45 14 86 32 92 39 13
16 -2 199 -21 253 -42 117 -107 205 -182 250 -42 24 -117 39 -145 27z m161
-331 c37 -19 64 -43 87 -76 17 -27 32 -51 32 -55 0 -10 -163 -31 -231 -31
-135 2 -210 73 -142 136 61 56 173 68 254 26z"/>
<path d="M33800 28883 c-32 -12 -60 -47 -60 -74 0 -32 28 -46 59 -30 56 31
145 -15 183 -94 12 -25 20 -47 17 -49 -2 -3 -31 5 -64 16 -161 54 -340 -36
-338 -171 2 -123 106 -193 288 -194 71 0 107 6 171 27 45 14 86 32 92 39 13
16 -2 199 -21 253 -42 117 -107 205 -182 250 -42 24 -117 39 -145 27z m161
-331 c37 -19 64 -43 87 -76 17 -27 32 -51 32 -55 0 -10 -163 -31 -231 -31
-135 2 -210 73 -142 136 61 56 173 68 254 26z"/>
<path d="M24705 28826 c-123 -38 -156 -134 -80 -224 35 -42 87 -60 219 -76
154 -19 197 -42 183 -98 -10 -37 -47 -48 -157 -48 -103 0 -161 16 -217 60 -30
24 -66 26 -83 5 -19 -23 26 -84 86 -117 99 -54 300 -62 391 -17 61 31 86 66
86 122 0 107 -62 148 -258 172 -150 19 -188 35 -193 82 -3 27 1 32 38 47 50
20 112 21 150 1 25 -13 28 -18 23 -54 -5 -33 -2 -40 14 -45 71 -23 95 90 33
152 -49 49 -149 65 -235 38z"/>
<path d="M27719 28798 c-8 -29 -9 -85 -5 -170 l6 -127 -36 -37 c-105 -104
-221 -77 -274 64 -19 50 -33 111 -55 245 -5 32 -10 38 -28 35 -12 -2 -27 -13
-33 -25 l-11 -23 -23 25 c-47 51 -159 59 -254 20 -34 -14 -70 -22 -82 -19 -39
10 -48 -24 -34 -138 14 -122 41 -230 76 -309 23 -51 30 -59 48 -53 53 16 54
45 4 204 -17 52 -31 119 -32 148 -1 47 2 57 27 78 33 28 68 30 147 9 30 -8 69
-15 87 -15 31 0 32 -1 38 -57 20 -169 109 -306 218 -338 28 -8 56 -15 62 -15
7 0 48 18 91 40 54 27 82 36 89 29 13 -13 10 -179 -5 -291 -24 -184 -63 -258
-135 -258 -52 0 -90 23 -176 107 -78 76 -101 84 -115 41 -26 -84 141 -233 276
-246 66 -6 93 2 131 40 65 66 103 196 114 398 14 246 -42 661 -92 677 -7 3
-17 -14 -24 -39z"/>
<path d="M30909 28798 c-8 -29 -9 -85 -5 -170 l6 -127 -36 -37 c-105 -104
-221 -77 -274 64 -19 50 -33 111 -55 245 -5 32 -10 38 -28 35 -36 -5 -49 -44
-42 -132 13 -181 101 -326 218 -361 28 -8 56 -15 62 -15 7 0 48 18 91 40 54
27 82 36 89 29 13 -13 10 -179 -5 -291 -24 -184 -63 -258 -135 -258 -52 0 -90
23 -176 107 -78 76 -101 84 -115 41 -26 -84 141 -233 276 -246 66 -6 93 2 131
40 65 66 103 196 114 398 14 246 -42 661 -92 677 -7 3 -17 -14 -24 -39z"/>
<path d="M29756 28805 c-34 -14 -70 -22 -82 -19 -39 10 -48 -24 -34 -138 14
-122 41 -230 76 -309 23 -51 30 -59 48 -53 53 16 54 45 4 204 -17 52 -31 119
-32 148 -1 47 2 57 27 78 33 28 68 30 147 9 30 -8 70 -15 88 -15 29 0 32 3 32
28 0 83 -148 119 -274 67z"/>
<path d="M25920 28784 c-61 -29 -78 -33 -97 -25 -47 22 -53 9 -53 -123 0 -196
37 -323 101 -345 57 -20 56 -30 17 170 -26 132 -20 169 32 221 36 36 62 45
120 39 27 -3 86 -78 105 -133 11 -34 19 -96 22 -170 5 -115 6 -117 31 -123 45
-11 66 23 70 113 6 131 -40 274 -112 350 -68 73 -125 80 -236 26z"/>
<path d="M29484 28794 c-9 -36 5 -273 22 -372 23 -131 54 -171 97 -124 24 26
22 91 -8 256 -14 77 -25 163 -25 191 0 58 -12 75 -52 75 -21 0 -29 -6 -34 -26z"/>
<path d="M32224 28794 c-9 -36 5 -273 22 -372 23 -131 54 -171 97 -124 24 26
22 91 -8 256 -14 77 -25 163 -25 191 0 58 -12 75 -52 75 -21 0 -29 -6 -34 -26z"/>
<path d="M32564 28794 c-9 -36 5 -273 22 -372 23 -131 54 -171 97 -124 24 26
22 91 -8 256 -14 77 -25 163 -25 191 0 58 -12 75 -52 75 -21 0 -29 -6 -34 -26z"/>
<path d="M33260 28778 c-25 -12 -69 -46 -98 -74 -51 -49 -54 -51 -62 -29 -29
77 -181 122 -256 76 -26 -16 -33 -17 -49 -5 -26 19 -38 18 -53 -6 -9 -16 -10
-57 -1 -192 13 -211 13 -214 43 -234 20 -12 29 -13 47 -4 21 12 21 15 14 131
-8 133 1 177 42 209 15 12 41 20 63 20 57 0 89 -43 129 -171 41 -130 53 -149
91 -149 38 0 49 35 30 99 -7 25 -15 65 -18 88 -4 38 0 45 45 91 63 65 120 85
161 56 15 -11 38 -42 52 -70 23 -45 25 -60 25 -181 0 -142 6 -160 48 -150 33
9 48 49 54 142 9 135 -40 274 -120 339 -51 41 -124 46 -187 14z"/>
<path d="M28053 28775 c-151 -47 -232 -167 -203 -301 14 -66 40 -107 90 -143
132 -95 354 -41 421 104 27 58 25 147 -5 210 -26 56 -86 118 -129 134 -38 15
-122 13 -174 -4z m199 -146 c59 -56 50 -120 -28 -189 -72 -63 -147 -77 -214
-39 -105 59 -104 206 2 260 93 47 167 37 240 -32z"/>
<path d="M7098 28539 c-24 -14 -23 -76 2 -164 22 -76 50 -198 50 -220 0 -8
-30 2 -85 31 -93 48 -140 55 -198 30 -143 -61 -178 -318 -61 -454 45 -53 94
-69 160 -53 69 17 120 47 170 97 l45 44 9 -26 c6 -14 10 -29 10 -33 0 -19 40
-42 67 -39 34 4 33 -11 9 258 -27 301 -62 448 -124 513 -29 30 -30 31 -54 16z
m-87 -431 c19 -6 57 -26 85 -44 52 -32 52 -32 44 -73 -8 -43 -15 -55 -64 -109
-61 -67 -163 -94 -199 -54 -22 24 -47 97 -47 136 1 48 35 113 72 136 38 23 61
25 109 8z"/>
<path d="M10228 28539 c-24 -14 -23 -76 2 -164 22 -76 50 -198 50 -220 0 -8
-30 2 -85 31 -93 48 -140 55 -198 30 -143 -61 -178 -318 -61 -454 45 -53 94
-69 160 -53 69 17 120 47 170 97 l45 44 9 -26 c6 -14 10 -29 10 -33 0 -19 40
-42 67 -39 34 4 33 -11 9 258 -27 301 -62 448 -124 513 -29 30 -30 31 -54 16z
m-87 -431 c19 -6 57 -26 85 -44 52 -32 52 -32 44 -73 -8 -43 -15 -55 -64 -109
-61 -67 -163 -94 -199 -54 -22 24 -47 97 -47 136 1 48 35 113 72 136 38 23 61
25 109 8z"/>
<path d="M16350 28415 c-9 -11 -11 -37 -8 -87 3 -39 3 -89 1 -110 l-6 -37 -58
-7 c-45 -5 -60 -11 -64 -25 -4 -10 -3 -24 1 -30 10 -16 69 -39 103 -39 l29 0
4 -147 c3 -124 7 -156 25 -195 21 -47 34 -55 67 -42 15 6 16 28 10 200 l-7
194 52 0 c61 0 91 13 91 40 0 29 -39 50 -91 50 -44 0 -47 2 -53 31 -3 17 -6
64 -6 103 0 80 -17 116 -54 116 -13 0 -29 -7 -36 -15z"/>
<path d="M10450 28360 c0 -35 4 -42 27 -51 15 -5 38 -8 50 -4 51 12 7 95 -50
95 -25 0 -27 -3 -27 -40z"/>
<path d="M10780 28360 c0 -35 4 -42 27 -51 15 -5 38 -8 50 -4 51 12 7 95 -50
95 -25 0 -27 -3 -27 -40z"/>
<path d="M16020 28360 c0 -35 4 -42 27 -51 15 -5 38 -8 50 -4 51 12 7 95 -50
95 -25 0 -27 -3 -27 -40z"/>
<path d="M6005 28383 c-42 -11 -104 -65 -170 -149 l-70 -87 -11 94 c-14 124
-20 139 -49 139 -43 0 -48 -28 -30 -163 9 -67 18 -187 21 -266 6 -189 22 -251
65 -251 34 0 43 40 31 132 -6 46 -9 84 -7 86 2 2 29 -16 62 -41 107 -81 243
-167 271 -173 19 -4 32 -1 42 10 22 28 -3 61 -86 113 -157 98 -282 210 -267
238 5 7 58 68 118 135 116 128 131 149 122 174 -7 17 -9 17 -42 9z"/>
<path d="M7340 28355 c-10 -12 -11 -77 -7 -308 3 -160 8 -302 12 -314 5 -17
15 -23 35 -23 48 0 54 39 52 329 -2 219 -4 260 -20 290 -19 40 -51 51 -72 26z"/>
<path d="M10670 28355 c-10 -12 -11 -77 -7 -308 3 -160 8 -302 12 -314 5 -17
15 -23 35 -23 48 0 54 39 52 329 -2 219 -4 260 -20 290 -19 40 -51 51 -72 26z"/>
<path d="M14560 28355 c-10 -12 -11 -77 -7 -308 3 -160 8 -302 12 -314 5 -17
15 -23 35 -23 48 0 54 39 52 329 -2 219 -4 260 -20 290 -19 40 -51 51 -72 26z"/>
<path d="M12037 28298 c-58 -16 -132 -89 -158 -156 -30 -77 -31 -189 -2 -253
61 -136 216 -211 369 -179 71 15 121 39 154 75 l25 27 -135 -6 c-195 -10 -293
20 -326 100 -20 48 -18 54 15 41 70 -26 220 31 269 103 20 30 23 44 20 97 -8
124 -104 187 -231 151z m103 -83 c20 -10 33 -28 41 -55 11 -37 10 -42 -10 -64
-38 -40 -128 -74 -184 -69 l-48 5 7 37 c12 68 52 123 108 147 40 17 51 17 86
-1z"/>
<path d="M7644 28281 c-26 -11 -54 -49 -54 -72 0 -9 7 -22 15 -29 13 -11 22
-10 51 3 31 15 37 15 74 1 45 -18 96 -72 106 -110 9 -34 3 -37 -42 -18 -62 26
-158 23 -225 -8 -120 -55 -152 -183 -67 -265 47 -44 87 -61 173 -74 66 -10 86
-9 168 10 50 12 105 29 122 39 29 18 30 19 27 98 -4 100 -17 152 -56 234 -65
135 -206 227 -292 191z m144 -307 c20 -8 52 -29 70 -47 34 -33 67 -85 59 -94
-9 -8 -132 -23 -203 -23 -112 0 -174 28 -174 80 0 71 154 124 248 84z"/>
<path d="M9054 28281 c-26 -11 -54 -49 -54 -72 0 -9 7 -22 15 -29 13 -11 22
-10 51 3 31 15 37 15 74 1 45 -18 96 -72 106 -110 9 -34 3 -37 -42 -18 -62 26
-158 23 -225 -8 -120 -55 -152 -183 -67 -265 47 -44 87 -61 173 -74 66 -10 86
-9 168 10 50 12 105 29 122 39 29 18 30 19 27 98 -4 100 -17 152 -56 234 -65
135 -206 227 -292 191z m144 -307 c20 -8 52 -29 70 -47 34 -33 67 -85 59 -94
-9 -8 -132 -23 -203 -23 -112 0 -174 28 -174 80 0 71 154 124 248 84z"/>
<path d="M13164 28281 c-26 -11 -54 -49 -54 -72 0 -9 7 -22 15 -29 13 -11 22
-10 51 3 31 15 37 15 74 1 45 -18 96 -72 106 -110 9 -34 3 -37 -42 -18 -62 26
-158 23 -225 -8 -120 -55 -152 -183 -67 -265 47 -44 87 -61 173 -74 66 -10 86
-9 168 10 50 12 105 29 122 39 29 18 30 19 27 98 -4 100 -17 152 -56 234 -65
135 -206 227 -292 191z m144 -307 c20 -8 52 -29 70 -47 34 -33 67 -85 59 -94
-9 -8 -132 -23 -203 -23 -112 0 -174 28 -174 80 0 71 154 124 248 84z"/>
<path d="M14164 28281 c-26 -11 -54 -49 -54 -72 0 -9 7 -22 15 -29 13 -11 22
-10 51 3 31 15 37 15 74 1 45 -18 96 -72 106 -110 9 -34 3 -37 -42 -18 -62 26
-158 23 -225 -8 -120 -55 -152 -183 -67 -265 47 -44 87 -61 173 -74 66 -10 86
-9 168 10 50 12 105 29 122 39 29 18 30 19 27 98 -4 100 -17 152 -56 234 -65
135 -206 227 -292 191z m144 -307 c20 -8 52 -29 70 -47 34 -33 67 -85 59 -94
-9 -8 -132 -23 -203 -23 -112 0 -174 28 -174 80 0 71 154 124 248 84z"/>
<path d="M17624 28281 c-26 -11 -54 -49 -54 -72 0 -9 7 -22 15 -29 13 -11 22
-10 51 3 31 15 37 15 74 1 45 -18 96 -72 106 -110 9 -34 3 -37 -42 -18 -62 26
-158 23 -225 -8 -120 -55 -152 -183 -67 -265 47 -44 87 -61 173 -74 66 -10 86
-9 168 10 50 12 105 29 122 39 29 18 30 19 27 98 -4 100 -17 152 -56 234 -65
135 -206 227 -292 191z m144 -307 c20 -8 52 -29 70 -47 34 -33 67 -85 59 -94
-9 -8 -132 -23 -203 -23 -112 0 -174 28 -174 80 0 71 154 124 248 84z"/>
<path d="M12849 28218 c-8 -15 -12 -70 -10 -164 2 -164 -3 -175 -92 -219 -64
-31 -104 -26 -149 18 -48 49 -83 152 -103 305 -6 47 -9 52 -31 52 -35 0 -47
-39 -40 -130 13 -181 116 -335 237 -355 36 -6 51 -2 113 29 80 40 91 43 100
20 13 -34 -7 -295 -30 -389 -22 -95 -76 -144 -139 -126 -46 12 -124 70 -172
127 -28 33 -43 44 -56 39 -30 -12 -33 -54 -6 -104 45 -85 177 -161 279 -161
41 0 55 5 84 31 86 75 119 212 119 489 1 209 -17 369 -54 493 -21 71 -31 80
-50 45z"/>
<path d="M10514 28216 c-16 -12 -17 -27 -11 -162 8 -171 21 -264 45 -314 19
-40 38 -47 67 -26 25 18 23 96 -7 251 -11 61 -23 141 -27 179 -5 58 -9 70 -28
77 -13 5 -28 3 -39 -5z"/>
<path d="M10844 28216 c-16 -12 -17 -27 -11 -162 8 -171 21 -264 45 -314 19
-40 38 -47 67 -26 25 18 23 96 -7 251 -11 61 -23 141 -27 179 -5 58 -9 70 -28
77 -13 5 -28 3 -39 -5z"/>
<path d="M15766 28214 c-21 -8 -44 -19 -51 -24 -8 -7 -21 -7 -37 -1 -22 8 -27
6 -38 -15 -26 -48 26 -327 80 -435 23 -44 26 -45 59 -23 20 14 23 23 17 58 -3
22 -17 77 -32 121 -14 44 -28 107 -31 140 -5 55 -3 62 20 84 31 28 75 30 165
7 84 -22 102 -21 102 7 0 32 -27 67 -66 83 -42 18 -137 17 -188 -2z"/>
<path d="M16084 28216 c-16 -12 -17 -27 -11 -162 8 -171 21 -264 45 -314 19
-40 38 -47 67 -26 25 18 23 96 -7 251 -11 61 -23 141 -27 179 -5 58 -9 70 -28
77 -13 5 -28 3 -39 -5z"/>
<path d="M8525 28171 c-28 -16 -69 -48 -93 -71 -23 -23 -42 -36 -42 -28 0 19
-59 74 -93 87 -41 16 -123 13 -157 -4 -24 -13 -33 -13 -50 -3 -36 23 -55 0
-55 -68 1 -133 16 -316 28 -334 25 -41 72 -36 81 8 3 15 2 64 -3 110 -5 53 -5
98 1 123 12 47 58 89 97 89 57 0 92 -47 131 -180 34 -115 45 -132 83 -128 31
3 32 4 31 53 -1 28 -8 70 -15 93 -12 40 -12 47 7 80 27 48 106 102 148 102 39
0 66 -26 98 -95 20 -44 22 -64 20 -171 -2 -106 0 -123 14 -128 47 -18 74 25
81 129 7 88 -9 166 -49 245 -59 119 -156 153 -263 91z"/>
<path d="M17095 28171 c-28 -16 -69 -48 -93 -71 -23 -23 -42 -36 -42 -28 0 19
-59 74 -93 87 -41 16 -123 13 -157 -4 -24 -13 -33 -13 -50 -3 -36 23 -55 0
-55 -68 1 -133 16 -316 28 -334 25 -41 72 -36 81 8 3 15 2 64 -3 110 -5 53 -5
98 1 123 12 47 58 89 97 89 57 0 92 -47 131 -180 34 -115 45 -132 83 -128 31
3 32 4 31 53 -1 28 -8 70 -15 93 -12 40 -12 47 7 80 27 48 106 102 148 102 39
0 66 -26 98 -95 20 -44 22 -64 20 -171 -2 -106 0 -123 14 -128 47 -18 74 25
81 129 7 88 -9 166 -49 245 -59 119 -156 153 -263 91z"/>
<path d="M6397 28179 c-182 -43 -268 -227 -176 -376 27 -43 108 -90 170 -98
104 -14 223 36 276 116 37 56 44 156 16 220 -56 125 -150 170 -286 138z m143
-117 c92 -56 96 -124 12 -202 -59 -56 -115 -75 -169 -60 -76 21 -113 70 -113
147 0 47 4 56 35 87 39 40 114 68 160 60 17 -2 50 -17 75 -32z"/>
<path d="M14853 28175 c-111 -48 -202 -217 -174 -322 17 -61 72 -110 144 -127
18 -4 43 0 74 14 25 11 51 20 58 20 37 0 55 -337 22 -421 -27 -69 -46 -83
-110 -76 -64 6 -201 58 -241 90 -23 19 -31 35 -35 73 -5 44 -9 49 -33 52 -53
6 -70 -65 -33 -138 16 -31 69 -80 115 -108 63 -37 184 -72 252 -72 108 0 152
49 184 202 13 60 13 110 5 323 -14 326 -33 421 -98 481 -30 28 -80 31 -130 9z
m91 -97 c11 -15 16 -45 16 -89 0 -118 -30 -159 -114 -159 -38 0 -48 4 -63 27
-37 57 -3 172 65 218 45 31 76 32 96 3z"/>
<path d="M15307 28179 c-182 -43 -268 -227 -176 -376 27 -43 108 -90 170 -98
104 -14 223 36 276 116 37 56 44 156 16 220 -56 125 -150 170 -286 138z m143
-117 c92 -56 96 -124 12 -202 -59 -56 -115 -75 -169 -60 -76 21 -113 70 -113
147 0 47 4 56 35 87 39 40 114 68 160 60 17 -2 50 -17 75 -32z"/>
<path d="M11413 28127 c-9 -19 2 -48 72 -192 80 -166 127 -235 159 -235 27 0
64 63 112 191 26 68 55 135 66 148 37 49 13 81 -47 61 -28 -9 -38 -23 -72 -98
-23 -48 -46 -104 -53 -125 l-12 -39 -23 34 c-12 18 -34 65 -50 103 -40 102
-62 142 -87 159 -31 22 -53 20 -65 -7z"/>
<path d="M31837 27561 l-28 -6 1 -319 c0 -193 4 -326 11 -337 11 -21 49 -25
67 -7 14 14 15 133 5 461 -4 147 -10 217 -17 216 -6 -1 -24 -4 -39 -8z"/>
<path d="M27175 27443 c-22 -21 -15 -82 20 -203 14 -47 28 -112 32 -144 l6
-59 -44 27 c-81 50 -112 61 -180 61 -57 0 -71 -4 -102 -28 -72 -55 -117 -192
-97 -297 18 -97 66 -172 132 -206 63 -33 188 8 273 89 26 26 51 44 55 42 4 -3
11 -17 15 -32 13 -53 56 -78 94 -54 11 7 11 25 2 97 -6 49 -15 148 -21 219
-21 248 -53 385 -110 463 -33 46 -49 51 -75 25z m-83 -437 c20 -7 60 -28 88
-46 55 -35 61 -54 37 -113 -33 -78 -138 -157 -209 -157 -45 0 -72 30 -94 106
-12 43 -13 61 -4 96 16 56 46 97 84 114 39 16 52 17 98 0z"/>
<path d="M28625 27294 c-32 -34 -32 -58 0 -89 31 -32 65 -32 99 0 30 28 31 36
11 74 -25 49 -73 55 -110 15z"/>
<path d="M28806 27289 c-32 -38 -33 -53 -1 -84 31 -32 69 -32 101 1 30 29 27
67 -8 97 -31 26 -63 21 -92 -14z"/>
<path d="M29805 27294 c-32 -34 -32 -58 0 -89 31 -32 65 -32 99 0 30 28 31 36
11 74 -25 49 -73 55 -110 15z"/>
<path d="M29986 27289 c-32 -38 -33 -53 -1 -84 31 -32 69 -32 101 1 30 29 27
67 -8 97 -31 26 -63 21 -92 -14z"/>
<path d="M27545 27194 c-14 -15 -25 -35 -25 -46 0 -25 44 -68 70 -68 14 0 -2
-12 -41 -33 -78 -40 -123 -96 -139 -170 -28 -137 51 -259 187 -287 96 -20 204
9 272 73 104 99 94 268 -22 374 l-46 43 25 25 c30 30 27 68 -8 98 -31 26 -63
21 -92 -14 -30 -36 -32 -46 -10 -77 15 -21 14 -22 -18 -22 -18 0 -44 -3 -58
-7 l-25 -6 28 26 c31 30 32 38 12 76 -25 49 -73 55 -110 15z m267 -265 c59
-56 50 -120 -28 -189 -72 -63 -147 -77 -214 -39 -105 59 -104 206 2 260 93 47
167 37 240 -32z"/>
<path d="M28542 27153 c-62 -25 -52 -246 18 -390 36 -73 84 -118 141 -133 67
-18 105 -5 171 58 56 53 61 56 73 38 8 -10 17 -38 21 -62 8 -59 24 -77 64 -76
58 1 59 19 9 149 -17 43 -29 94 -29 121 -1 80 -19 194 -35 219 -17 26 -47 30
-65 8 -7 -9 -13 -56 -14 -123 -3 -104 -4 -111 -34 -155 -41 -58 -78 -87 -113
-87 -88 0 -169 177 -155 337 8 91 -5 115 -52 96z"/>
<path d="M29722 27153 c-62 -25 -52 -246 18 -390 36 -73 84 -118 141 -133 67
-18 105 -5 171 58 56 53 61 56 73 38 8 -10 17 -38 21 -62 8 -59 24 -77 64 -76
58 1 59 19 9 149 -17 43 -29 94 -29 121 -1 80 -19 194 -35 219 -17 26 -47 30
-65 8 -7 -9 -13 -56 -14 -123 -3 -104 -4 -111 -34 -155 -41 -58 -78 -87 -113
-87 -88 0 -169 177 -155 337 8 91 -5 115 -52 96z"/>
<path d="M29225 27126 c-123 -38 -156 -134 -80 -224 35 -42 87 -60 219 -76
154 -19 197 -42 183 -98 -10 -37 -47 -48 -157 -48 -103 0 -161 16 -217 60 -30
24 -66 26 -83 5 -20 -25 28 -88 89 -116 49 -24 50 -25 51 -69 0 -86 24 -106
170 -151 44 -14 45 -15 45 -54 0 -39 -1 -40 -38 -43 -28 -2 -47 4 -80 27 -54
38 -79 44 -102 27 -18 -13 -18 -14 2 -42 43 -60 80 -86 127 -91 68 -8 111 4
152 42 35 34 36 37 32 92 -7 75 -38 105 -132 123 -75 14 -96 29 -96 68 l0 27
103 0 c89 0 108 3 151 25 64 32 89 67 89 123 0 107 -62 148 -258 172 -150 19
-188 35 -193 82 -3 27 1 32 38 47 50 20 112 21 150 1 25 -13 28 -18 23 -54 -5
-33 -2 -40 14 -45 71 -23 95 90 33 152 -49 49 -149 65 -235 38z"/>
<path d="M30689 27098 c-8 -29 -9 -85 -5 -170 l6 -127 -36 -37 c-105 -104
-221 -77 -274 64 -19 50 -33 111 -55 245 -5 32 -10 38 -28 35 -36 -5 -49 -44
-42 -132 13 -181 101 -326 218 -361 28 -8 56 -15 62 -15 7 0 48 18 91 40 54
27 82 36 89 29 13 -13 10 -179 -5 -291 -24 -184 -63 -258 -135 -258 -52 0 -90
23 -176 107 -78 76 -101 84 -115 41 -26 -84 141 -233 276 -246 66 -6 93 2 131
40 65 66 103 196 114 398 14 246 -42 661 -92 677 -7 3 -17 -14 -24 -39z"/>
<path d="M31506 27105 c-34 -14 -70 -22 -82 -19 -39 10 -48 -24 -34 -138 14
-122 41 -230 76 -309 23 -51 30 -59 48 -53 53 16 54 45 4 204 -17 52 -31 119
-32 148 -1 47 2 57 27 78 33 28 68 30 147 9 30 -8 70 -15 88 -15 29 0 32 3 32
28 0 83 -148 119 -274 67z"/>
<path d="M28140 27084 c-61 -29 -78 -33 -97 -25 -47 22 -53 9 -53 -123 0 -196
37 -323 101 -345 57 -20 56 -30 17 170 -26 132 -20 169 32 221 36 36 62 45
120 39 27 -3 86 -78 105 -133 11 -34 19 -96 22 -170 5 -115 6 -117 31 -123 45
-11 66 23 70 113 6 131 -40 274 -112 350 -68 73 -125 80 -236 26z"/>
<path d="M31033 27075 c-151 -47 -232 -167 -203 -301 14 -66 40 -107 90 -143
132 -95 354 -41 421 104 27 58 25 147 -5 210 -26 56 -86 118 -129 134 -38 15
-122 13 -174 -4z m199 -146 c59 -56 50 -120 -28 -189 -72 -63 -147 -77 -214
-39 -105 59 -104 206 2 260 93 47 167 37 240 -32z"/>
<path d="M16148 26899 c-24 -14 -23 -76 2 -164 22 -76 50 -198 50 -220 0 -8
-30 2 -85 31 -93 48 -140 55 -198 30 -143 -61 -178 -318 -61 -454 45 -53 94
-69 160 -53 69 17 120 47 170 97 l45 44 9 -26 c6 -14 10 -29 10 -33 0 -19 40
-42 67 -39 34 4 33 -11 9 258 -27 301 -62 448 -124 513 -29 30 -30 31 -54 16z
m-87 -431 c19 -6 57 -26 85 -44 52 -32 52 -32 44 -73 -8 -43 -15 -55 -64 -109
-61 -67 -163 -94 -199 -54 -22 24 -47 97 -47 136 1 48 35 113 72 136 38 23 61
25 109 8z"/>
<path d="M5672 26793 c-31 -12 -31 -52 -3 -225 16 -95 32 -209 35 -254 15
-200 86 -264 275 -251 146 11 215 62 215 160 0 138 -142 240 -335 241 l-87 0
-17 156 c-9 85 -18 161 -21 168 -3 12 -37 15 -62 5z m266 -427 c78 -21 136
-59 157 -102 l18 -38 -36 -32 c-65 -60 -174 -55 -245 11 -34 31 -37 38 -35 85
2 87 34 104 141 76z"/>
<path d="M11405 26757 c-4 -13 8 -104 26 -203 27 -148 33 -205 33 -329 l1
-150 28 -10 c24 -8 31 -6 43 10 8 10 14 30 14 44 0 52 14 56 64 22 96 -66 172
-86 231 -59 19 9 25 19 25 44 0 36 1 35 -84 49 -104 17 -196 73 -196 120 0 32
41 89 127 176 61 62 74 81 68 98 -5 16 -15 21 -39 21 -36 0 -70 -31 -125 -112
-27 -41 -68 -77 -75 -66 -1 2 -11 48 -21 103 -22 122 -52 224 -73 248 -21 24
-41 21 -47 -6z"/>
<path d="M13375 26757 c-4 -13 8 -104 26 -203 27 -148 33 -205 33 -329 l1
-150 28 -10 c24 -8 31 -6 43 10 8 10 14 30 14 44 0 52 14 56 64 22 96 -66 172
-86 231 -59 19 9 25 19 25 44 0 36 1 35 -84 49 -104 17 -196 73 -196 120 0 32
41 89 127 176 61 62 74 81 68 98 -5 16 -15 21 -39 21 -36 0 -70 -31 -125 -112
-27 -41 -68 -77 -75 -66 -1 2 -11 48 -21 103 -22 122 -52 224 -73 248 -21 24
-41 21 -47 -6z"/>
<path d="M6210 26720 c0 -35 4 -42 27 -51 15 -5 38 -8 50 -4 51 12 7 95 -50
95 -25 0 -27 -3 -27 -40z"/>
<path d="M14730 26738 c-88 -37 -121 -109 -86 -191 20 -48 56 -74 237 -172 90
-48 172 -95 182 -103 11 -10 17 -29 17 -54 0 -36 -3 -40 -37 -55 -52 -21 -230
-20 -311 2 -91 26 -142 87 -142 173 0 26 -17 28 -47 7 -75 -53 -21 -171 108
-233 147 -71 394 -73 474 -4 60 51 74 134 33 188 -43 55 -74 75 -235 154 -188
93 -237 137 -205 187 15 24 82 43 148 43 57 0 74 -5 130 -36 79 -44 120 -44
117 0 -5 65 -91 107 -233 113 -82 3 -103 1 -150 -19z"/>
<path d="M6430 26715 c-10 -12 -11 -77 -7 -308 3 -160 8 -302 12 -314 5 -17
15 -23 35 -23 48 0 54 39 52 329 -2 219 -4 260 -20 290 -19 40 -51 51 -72 26z"/>
<path d="M31823 26720 c-45 -18 -57 -86 -22 -121 17 -17 29 -20 56 -16 56 9
83 32 83 70 0 66 -49 94 -117 67z"/>
<path d="M7567 26658 c-58 -16 -132 -89 -158 -156 -30 -77 -31 -189 -2 -253
61 -136 216 -211 369 -179 71 15 121 39 154 75 l25 27 -135 -6 c-195 -10 -293
20 -326 100 -20 48 -18 54 15 41 70 -26 220 31 269 103 20 30 23 44 20 97 -8
124 -104 187 -231 151z m103 -83 c20 -10 33 -28 41 -55 11 -37 10 -42 -10 -64
-38 -40 -128 -74 -184 -69 l-48 5 7 37 c12 68 52 123 108 147 40 17 51 17 86
-1z"/>
<path d="M8667 26658 c-58 -16 -132 -89 -158 -156 -30 -77 -31 -189 -2 -253
61 -136 216 -211 369 -179 71 15 121 39 154 75 l25 27 -135 -6 c-195 -10 -293
20 -326 100 -20 48 -18 54 15 41 70 -26 220 31 269 103 20 30 23 44 20 97 -8
124 -104 187 -231 151z m103 -83 c20 -10 33 -28 41 -55 11 -37 10 -42 -10 -64
-38 -40 -128 -74 -184 -69 l-48 5 7 37 c12 68 52 123 108 147 40 17 51 17 86
-1z"/>
<path d="M10077 26658 c-58 -16 -132 -89 -158 -156 -30 -77 -31 -189 -2 -253
61 -136 216 -211 369 -179 71 15 121 39 154 75 l25 27 -135 -6 c-195 -10 -293
20 -326 100 -20 48 -18 54 15 41 70 -26 220 31 269 103 20 30 23 44 20 97 -8
124 -104 187 -231 151z m103 -83 c20 -10 33 -28 41 -55 11 -37 10 -42 -10 -64
-38 -40 -128 -74 -184 -69 l-48 5 7 37 c12 68 52 123 108 147 40 17 51 17 86
-1z"/>
<path d="M11037 26658 c-58 -16 -132 -89 -158 -156 -30 -77 -31 -189 -2 -253
61 -136 216 -211 369 -179 71 15 121 39 154 75 l25 27 -135 -6 c-195 -10 -293
20 -326 100 -20 48 -18 54 15 41 70 -26 220 31 269 103 20 30 23 44 20 97 -8
124 -104 187 -231 151z m103 -83 c20 -10 33 -28 41 -55 11 -37 10 -42 -10 -64
-38 -40 -128 -74 -184 -69 l-48 5 7 37 c12 68 52 123 108 147 40 17 51 17 86
-1z"/>
<path d="M16557 26658 c-58 -16 -132 -89 -158 -156 -30 -77 -31 -189 -2 -253
61 -136 216 -211 369 -179 71 15 121 39 154 75 l25 27 -135 -6 c-195 -10 -293
20 -326 100 -20 48 -18 54 15 41 70 -26 220 31 269 103 20 30 23 44 20 97 -8
124 -104 187 -231 151z m103 -83 c20 -10 33 -28 41 -55 11 -37 10 -42 -10 -64
-38 -40 -128 -74 -184 -69 l-48 5 7 37 c12 68 52 123 108 147 40 17 51 17 86
-1z"/>
<path d="M17637 26658 c-58 -16 -132 -89 -158 -156 -30 -77 -31 -189 -2 -253
61 -136 216 -211 369 -179 71 15 121 39 154 75 l25 27 -135 -6 c-195 -10 -293
20 -326 100 -20 48 -18 54 15 41 70 -26 220 31 269 103 20 30 23 44 20 97 -8
124 -104 187 -231 151z m103 -83 c20 -10 33 -28 41 -55 11 -37 10 -42 -10 -64
-38 -40 -128 -74 -184 -69 l-48 5 7 37 c12 68 52 123 108 147 40 17 51 17 86
-1z"/>
<path d="M15404 26641 c-26 -11 -54 -49 -54 -72 0 -9 7 -22 15 -29 13 -11 22
-10 51 3 31 15 37 15 74 1 45 -18 96 -72 106 -110 9 -34 3 -37 -42 -18 -62 26
-158 23 -225 -8 -120 -55 -152 -183 -67 -265 47 -44 87 -61 173 -74 66 -10 86
-9 168 10 50 12 105 29 122 39 29 18 30 19 27 98 -4 100 -17 152 -56 234 -65
135 -206 227 -292 191z m144 -307 c20 -8 52 -29 70 -47 34 -33 67 -85 59 -94
-9 -8 -132 -23 -203 -23 -112 0 -174 28 -174 80 0 71 154 124 248 84z"/>
<path d="M12729 26578 c-8 -15 -12 -70 -10 -164 2 -164 -3 -175 -92 -219 -64
-31 -104 -26 -149 18 -48 49 -83 152 -103 305 -6 47 -9 52 -31 52 -35 0 -47
-39 -40 -130 13 -181 116 -335 237 -355 36 -6 51 -2 113 29 80 40 91 43 100
20 13 -34 -7 -295 -30 -389 -22 -95 -76 -144 -139 -126 -46 12 -124 70 -172
127 -28 33 -43 44 -56 39 -30 -12 -33 -54 -6 -104 45 -85 177 -161 279 -161
41 0 55 5 84 31 86 75 119 212 119 489 1 209 -17 369 -54 493 -21 71 -31 80
-50 45z"/>
<path d="M6274 26576 c-16 -12 -17 -27 -11 -162 8 -171 21 -264 45 -314 19
-40 38 -47 67 -26 25 18 23 96 -7 251 -11 61 -23 141 -27 179 -5 58 -9 70 -28
77 -13 5 -28 3 -39 -5z"/>
<path d="M8121 26554 c-61 -31 -77 -35 -93 -25 -13 8 -24 8 -38 1 -23 -12 -25
-46 -10 -205 15 -167 49 -246 113 -261 24 -5 27 -3 27 19 0 13 -9 71 -21 128
-13 63 -19 124 -17 158 4 47 10 59 41 87 47 43 99 54 135 27 69 -51 103 -143
107 -292 3 -110 12 -130 54 -116 28 9 41 49 41 131 0 198 -98 370 -217 381
-41 4 -60 -1 -122 -33z"/>
<path d="M10596 26574 c-21 -8 -44 -19 -51 -24 -8 -7 -21 -7 -37 -1 -22 8 -27
6 -38 -15 -26 -48 26 -327 80 -435 23 -44 26 -45 59 -23 20 14 23 23 17 58 -3
22 -17 77 -32 121 -14 44 -28 107 -31 140 -5 55 -3 62 20 84 31 28 75 30 165
7 84 -22 102 -21 102 7 0 32 -27 67 -66 83 -42 18 -137 17 -188 -2z"/>
<path d="M17092 26554 c-189 -94 -201 -376 -19 -460 100 -45 300 -41 340 7 10
12 16 27 14 33 -2 7 -52 13 -128 17 -130 7 -184 21 -226 61 -74 69 -35 233 64
274 75 32 138 3 149 -67 8 -49 30 -51 50 -4 20 50 17 79 -12 114 -47 56 -148
67 -232 25z"/>
<path d="M7045 26531 c-28 -16 -69 -48 -93 -71 -23 -23 -42 -36 -42 -28 0 19
-59 74 -93 87 -41 16 -123 13 -157 -4 -24 -13 -33 -13 -50 -3 -36 23 -55 0
-55 -68 1 -133 16 -316 28 -334 25 -41 72 -36 81 8 3 15 2 64 -3 110 -5 53 -5
98 1 123 12 47 58 89 97 89 57 0 92 -47 131 -180 34 -115 45 -132 83 -128 31
3 32 4 31 53 -1 28 -8 70 -15 93 -12 40 -12 47 7 80 27 48 106 102 148 102 39
0 66 -26 98 -95 20 -44 22 -64 20 -171 -2 -106 0 -123 14 -128 47 -18 74 25
81 129 7 88 -9 166 -49 245 -59 119 -156 153 -263 91z"/>
<path d="M9653 26535 c-111 -48 -202 -217 -174 -322 17 -61 72 -110 144 -127
18 -4 43 0 74 14 25 11 51 20 58 20 37 0 55 -337 22 -421 -27 -69 -46 -83
-110 -76 -64 6 -201 58 -241 90 -23 19 -31 35 -35 73 -5 44 -9 49 -33 52 -53
6 -70 -65 -33 -138 16 -31 69 -80 115 -108 63 -37 184 -72 252 -72 108 0 152
49 184 202 13 60 13 110 5 323 -14 326 -33 421 -98 481 -30 28 -80 31 -130 9z
m91 -97 c11 -15 16 -45 16 -89 0 -118 -30 -159 -114 -159 -38 0 -48 4 -63 27
-37 57 -3 172 65 218 45 31 76 32 96 3z"/>
<path d="M13067 26539 c-182 -43 -268 -227 -176 -376 27 -43 108 -90 170 -98
104 -14 223 36 276 116 37 56 44 156 16 220 -56 125 -150 170 -286 138z m143
-117 c92 -56 96 -124 12 -202 -59 -56 -115 -75 -169 -60 -76 21 -113 70 -113
147 0 47 4 56 35 87 39 40 114 68 160 60 17 -2 50 -17 75 -32z"/>
<path d="M13922 26273 c-37 -54 -46 -91 -33 -133 11 -38 51 -80 77 -80 21 0
70 47 84 80 10 25 10 39 1 72 -25 83 -92 114 -129 61z"/>
<path d="M7472 25153 c-31 -12 -31 -52 -3 -225 16 -95 32 -209 35 -254 15
-200 86 -264 275 -251 146 11 215 62 215 160 0 138 -142 240 -335 241 l-87 0
-17 156 c-9 85 -18 161 -21 168 -3 12 -37 15 -62 5z m266 -427 c78 -21 136
-59 157 -102 l18 -38 -36 -32 c-65 -60 -174 -55 -245 11 -34 31 -37 38 -35 85
2 87 34 104 141 76z"/>
<path d="M11830 25135 c-9 -11 -11 -37 -8 -87 3 -39 3 -89 1 -110 l-6 -37 -58
-7 c-45 -5 -60 -11 -64 -25 -4 -10 -3 -24 1 -30 10 -16 69 -39 103 -39 l29 0
4 -147 c3 -124 7 -156 25 -195 21 -47 34 -55 67 -42 15 6 16 28 10 200 l-7
194 52 0 c61 0 91 13 91 40 0 29 -39 50 -91 50 -44 0 -47 2 -53 31 -3 17 -6
64 -6 103 0 80 -17 116 -54 116 -13 0 -29 -7 -36 -15z"/>
<path d="M8585 25117 c-4 -13 8 -104 26 -203 27 -148 33 -205 33 -329 l1 -150
28 -10 c24 -8 31 -6 43 10 8 10 14 30 14 44 0 52 14 56 64 22 96 -66 172 -86
231 -59 19 9 25 19 25 44 0 36 1 35 -84 49 -104 17 -196 73 -196 120 0 32 41
89 127 176 61 62 74 81 68 98 -5 16 -15 21 -39 21 -36 0 -70 -31 -125 -112
-27 -41 -68 -77 -75 -66 -1 2 -11 48 -21 103 -22 122 -52 224 -73 248 -21 24
-41 21 -47 -6z"/>
<path d="M13080 25112 c0 -16 6 -34 13 -40 11 -9 243 -42 298 -42 27 0 27 -1
34 -92 6 -88 28 -294 41 -401 7 -54 40 -110 68 -115 28 -6 63 6 70 24 4 9 -5
40 -18 70 -13 29 -32 99 -41 156 -21 128 -44 340 -38 351 8 13 102 7 188 -13
104 -24 131 -25 143 -4 8 15 11 15 36 -1 25 -17 29 -17 61 -2 42 20 54 56 31
92 -17 26 -56 41 -81 31 -8 -3 -23 -19 -33 -35 -16 -27 -20 -28 -42 -16 -58
30 -229 48 -557 60 l-173 7 0 -30z"/>
<path d="M14675 25117 c-4 -13 8 -104 26 -203 27 -148 33 -205 33 -329 l1
-150 28 -10 c24 -8 31 -6 43 10 8 10 14 30 14 44 0 52 14 56 64 22 96 -66 172
-86 231 -59 19 9 25 19 25 44 0 36 1 35 -84 49 -104 17 -196 73 -196 120 0 32
41 89 127 176 61 62 74 81 68 98 -5 16 -15 21 -39 21 -36 0 -70 -31 -125 -112
-27 -41 -68 -77 -75 -66 -1 2 -11 48 -21 103 -22 122 -52 224 -73 248 -21 24
-41 21 -47 -6z"/>
<path d="M14036 25099 c-30 -35 -28 -62 6 -91 27 -23 49 -23 82 3 17 13 26 30
26 49 0 31 -39 70 -70 70 -10 0 -30 -14 -44 -31z"/>
<path d="M8010 25080 c0 -35 4 -42 27 -51 15 -5 38 -8 50 -4 51 12 7 95 -50
95 -25 0 -27 -3 -27 -40z"/>
<path d="M15837 25018 c-58 -16 -132 -89 -158 -156 -30 -77 -31 -189 -2 -253
61 -136 216 -211 369 -179 71 15 121 39 154 75 l25 27 -135 -6 c-195 -10 -293
20 -326 100 -20 48 -18 54 15 41 70 -26 220 31 269 103 20 30 23 44 20 97 -8
124 -104 187 -231 151z m103 -83 c20 -10 33 -28 41 -55 11 -37 10 -42 -10 -64
-38 -40 -128 -74 -184 -69 l-48 5 7 37 c12 68 52 123 108 147 40 17 51 17 86
-1z"/>
<path d="M9244 25001 c-26 -11 -54 -49 -54 -72 0 -9 7 -22 15 -29 13 -11 22
-10 51 3 31 15 37 15 74 1 45 -18 96 -72 106 -110 9 -34 3 -37 -42 -18 -62 26
-158 23 -225 -8 -120 -55 -152 -183 -67 -265 47 -44 87 -61 173 -74 66 -10 86
-9 168 10 50 12 105 29 122 39 29 18 30 19 27 98 -4 100 -17 152 -56 234 -65
135 -206 227 -292 191z m144 -307 c20 -8 52 -29 70 -47 34 -33 67 -85 59 -94
-9 -8 -132 -23 -203 -23 -112 0 -174 28 -174 80 0 71 154 124 248 84z"/>
<path d="M11324 25001 c-26 -11 -54 -49 -54 -72 0 -9 7 -22 15 -29 13 -11 22
-10 51 3 31 15 37 15 74 1 45 -18 96 -72 106 -110 9 -34 3 -37 -42 -18 -62 26
-158 23 -225 -8 -120 -55 -152 -183 -67 -265 47 -44 87 -61 173 -74 66 -10 86
-9 168 10 50 12 105 29 122 39 29 18 30 19 27 98 -4 100 -17 152 -56 234 -65
135 -206 227 -292 191z m144 -307 c20 -8 52 -29 70 -47 34 -33 67 -85 59 -94
-9 -8 -132 -23 -203 -23 -112 0 -174 28 -174 80 0 71 154 124 248 84z"/>
<path d="M13759 24948 c-18 -29 -20 -44 -16 -128 8 -148 66 -283 141 -330 77
-47 149 -34 221 40 22 22 44 40 51 40 12 0 28 -34 39 -85 9 -43 23 -55 61 -55
32 0 34 2 34 33 0 17 -13 66 -29 107 -22 58 -30 99 -34 177 -7 120 -25 173
-59 173 -41 0 -48 -17 -48 -122 0 -111 -14 -150 -72 -204 -43 -40 -57 -45 -95
-29 -42 18 -77 67 -103 145 -18 54 -21 80 -17 151 2 47 0 94 -5 103 -15 26
-47 19 -69 -16z"/>
<path d="M10674 24945 c-63 -24 -99 -67 -98 -119 2 -101 70 -146 258 -170 133
-17 166 -32 166 -75 0 -53 -29 -66 -149 -66 -96 0 -111 3 -158 27 -28 15 -54
32 -58 38 -8 13 -72 13 -80 0 -9 -14 20 -64 55 -94 41 -34 115 -55 221 -63
186 -13 291 57 268 180 -14 79 -75 112 -248 132 -125 15 -175 32 -186 63 -14
46 29 72 120 72 66 0 88 -16 89 -66 1 -45 25 -57 57 -28 40 36 19 120 -39 156
-45 28 -159 34 -218 13z"/>
<path d="M8074 24936 c-16 -12 -17 -27 -11 -162 8 -171 21 -264 45 -314 19
-40 38 -47 67 -26 25 18 23 96 -7 251 -11 61 -23 141 -27 179 -5 58 -9 70 -28
77 -13 5 -28 3 -39 -5z"/>
<path d="M8346 24934 c-21 -8 -44 -19 -51 -24 -8 -7 -21 -7 -37 -1 -22 8 -27
6 -38 -15 -26 -48 26 -327 80 -435 23 -44 26 -45 59 -23 20 14 23 23 17 58 -3
22 -17 77 -32 121 -14 44 -28 107 -31 140 -5 55 -3 62 20 84 31 28 75 30 165
7 84 -22 102 -21 102 7 0 32 -27 67 -66 83 -42 18 -137 17 -188 -2z"/>
<path d="M12134 24936 c-16 -12 -17 -27 -11 -162 8 -171 21 -264 45 -314 19
-40 38 -47 67 -26 25 18 23 96 -7 251 -11 61 -23 141 -27 179 -5 58 -9 70 -28
77 -13 5 -28 3 -39 -5z"/>
<path d="M12406 24934 c-21 -8 -44 -19 -51 -24 -8 -7 -21 -7 -37 -1 -22 8 -27
6 -38 -15 -26 -48 26 -327 80 -435 23 -44 26 -45 59 -23 20 14 23 23 17 58 -3
22 -17 77 -32 121 -14 44 -28 107 -31 140 -5 55 -3 62 20 84 31 28 75 30 165
7 84 -22 102 -21 102 7 0 32 -27 67 -66 83 -42 18 -137 17 -188 -2z"/>
<path d="M14436 24934 c-21 -8 -44 -19 -51 -24 -8 -7 -21 -7 -37 -1 -22 8 -27
6 -38 -15 -26 -48 26 -327 80 -435 23 -44 26 -45 59 -23 20 14 23 23 17 58 -3
22 -17 77 -32 121 -14 44 -28 107 -31 140 -5 55 -3 62 20 84 31 28 75 30 165
7 84 -22 102 -21 102 7 0 32 -27 67 -66 83 -42 18 -137 17 -188 -2z"/>
<path d="M9775 24921 c-107 -48 -171 -182 -145 -305 14 -67 43 -113 93 -145
28 -19 37 -31 37 -53 0 -37 22 -88 46 -110 11 -10 49 -24 84 -32 70 -17 93
-36 88 -76 -3 -21 -9 -25 -41 -28 -29 -3 -49 4 -84 27 -48 32 -77 38 -103 21
-12 -7 -7 -18 26 -57 49 -58 76 -73 131 -73 53 0 91 14 126 48 23 22 27 34 27
78 0 82 -33 111 -148 129 -49 8 -72 27 -72 60 0 22 2 23 63 18 88 -7 173 12
194 44 23 35 7 43 -98 43 -206 0 -285 48 -283 169 1 106 66 181 156 181 54 0
83 -26 96 -85 l8 -39 21 21 c29 29 40 90 22 121 -34 60 -159 82 -244 43z"/>
<path d="M15295 24921 c-107 -48 -171 -182 -145 -305 14 -67 43 -113 93 -145
28 -19 37 -31 37 -53 0 -37 22 -88 46 -110 11 -10 49 -24 84 -32 70 -17 93
-36 88 -76 -3 -21 -9 -25 -41 -28 -29 -3 -49 4 -84 27 -48 32 -77 38 -103 21
-12 -7 -7 -18 26 -57 49 -58 76 -73 131 -73 53 0 91 14 126 48 23 22 27 34 27
78 0 82 -33 111 -148 129 -49 8 -72 27 -72 60 0 22 2 23 63 18 88 -7 173 12
194 44 23 35 7 43 -98 43 -206 0 -285 48 -283 169 1 106 66 181 156 181 54 0
83 -26 96 -85 l8 -39 21 21 c29 29 40 90 22 121 -34 60 -159 82 -244 43z"/>
<path d="M17255 23724 c-10 -4 -10 -586 0 -631 7 -29 60 -33 73 -5 5 9 7 158
4 330 l-4 312 -32 -1 c-17 0 -35 -2 -41 -5z"/>
<path d="M15680 23495 c-9 -11 -11 -37 -8 -87 3 -39 3 -89 1 -110 l-6 -37 -58
-7 c-45 -5 -60 -11 -64 -25 -4 -10 -3 -24 1 -30 10 -16 69 -39 103 -39 l29 0
4 -147 c3 -124 7 -156 25 -195 21 -47 34 -55 67 -42 15 6 16 28 10 200 l-7
194 52 0 c61 0 91 13 91 40 0 29 -39 50 -91 50 -44 0 -47 2 -53 31 -3 17 -6
64 -6 103 0 80 -17 116 -54 116 -13 0 -29 -7 -36 -15z"/>
<path d="M17020 23440 c0 -35 4 -42 27 -51 15 -5 38 -8 50 -4 51 12 7 95 -50
95 -25 0 -27 -3 -27 -40z"/>
<path d="M16910 23435 c-10 -12 -11 -77 -7 -308 3 -160 8 -302 12 -314 5 -17
15 -23 35 -23 48 0 54 39 52 329 -2 219 -4 260 -20 290 -19 40 -51 51 -72 26z"/>
<path d="M7047 23378 c-58 -16 -132 -89 -158 -156 -30 -77 -31 -189 -2 -253
61 -136 216 -211 369 -179 71 15 121 39 154 75 l25 27 -135 -6 c-195 -10 -293
20 -326 100 -20 48 -18 54 15 41 70 -26 220 31 269 103 20 30 23 44 20 97 -8
124 -104 187 -231 151z m103 -83 c20 -10 33 -28 41 -55 11 -37 10 -42 -10 -64
-38 -40 -128 -74 -184 -69 l-48 5 7 37 c12 68 52 123 108 147 40 17 51 17 86
-1z"/>
<path d="M11679 23380 c-87 -15 -138 -56 -124 -101 4 -11 18 -24 32 -30 21 -8
30 -5 59 21 32 28 41 30 109 30 66 0 76 -2 86 -21 14 -28 6 -81 -20 -123 -20
-32 -25 -34 -94 -40 -125 -12 -146 -17 -152 -37 -3 -10 -1 -27 5 -38 9 -18 17
-20 70 -14 33 3 60 2 60 -2 0 -4 -13 -24 -29 -44 -79 -101 -67 -163 38 -191
75 -20 255 13 302 56 22 20 25 53 7 77 -12 15 -18 15 -78 -7 -89 -32 -160 -41
-184 -23 -19 14 -19 16 -2 42 10 14 33 44 53 65 30 35 42 40 94 46 43 5 63 12
69 25 19 34 12 49 -28 55 l-39 6 15 53 c17 62 11 111 -20 150 -40 51 -111 65
-229 45z"/>
<path d="M15167 23378 c-58 -16 -132 -89 -158 -156 -30 -77 -31 -189 -2 -253
61 -136 216 -211 369 -179 71 15 121 39 154 75 l25 27 -135 -6 c-195 -10 -293
20 -326 100 -20 48 -18 54 15 41 70 -26 220 31 269 103 20 30 23 44 20 97 -8
124 -104 187 -231 151z m103 -83 c20 -10 33 -28 41 -55 11 -37 10 -42 -10 -64
-38 -40 -128 -74 -184 -69 l-48 5 7 37 c12 68 52 123 108 147 40 17 51 17 86
-1z"/>
<path d="M16117 23378 c-58 -16 -132 -89 -158 -156 -30 -77 -31 -189 -2 -253
61 -136 216 -211 369 -179 71 15 121 39 154 75 l25 27 -135 -6 c-195 -10 -293
20 -326 100 -20 48 -18 54 15 41 70 -26 220 31 269 103 20 30 23 44 20 97 -8
124 -104 187 -231 151z m103 -83 c20 -10 33 -28 41 -55 11 -37 10 -42 -10 -64
-38 -40 -128 -74 -184 -69 l-48 5 7 37 c12 68 52 123 108 147 40 17 51 17 86
-1z"/>
<path d="M8154 23361 c-26 -11 -54 -49 -54 -72 0 -9 7 -22 15 -29 13 -11 22
-10 51 3 31 15 37 15 74 1 45 -18 96 -72 106 -110 9 -34 3 -37 -42 -18 -62 26
-158 23 -225 -8 -120 -55 -152 -183 -67 -265 47 -44 87 -61 173 -74 66 -10 86
-9 168 10 50 12 105 29 122 39 29 18 30 19 27 98 -4 100 -17 152 -56 234 -65
135 -206 227 -292 191z m144 -307 c20 -8 52 -29 70 -47 34 -33 67 -85 59 -94
-9 -8 -132 -23 -203 -23 -112 0 -174 28 -174 80 0 71 154 124 248 84z"/>
<path d="M11174 23361 c-26 -11 -54 -49 -54 -72 0 -9 7 -22 15 -29 13 -11 22
-10 51 3 31 15 37 15 74 1 45 -18 96 -72 106 -110 9 -34 3 -37 -42 -18 -62 26
-158 23 -225 -8 -120 -55 -152 -183 -67 -265 47 -44 87 -61 173 -74 66 -10 86
-9 168 10 50 12 105 29 122 39 29 18 30 19 27 98 -4 100 -17 152 -56 234 -65
135 -206 227 -292 191z m144 -307 c20 -8 52 -29 70 -47 34 -33 67 -85 59 -94
-9 -8 -132 -23 -203 -23 -112 0 -174 28 -174 80 0 71 154 124 248 84z"/>
<path d="M13104 23361 c-26 -11 -54 -49 -54 -72 0 -9 7 -22 15 -29 13 -11 22
-10 51 3 31 15 37 15 74 1 45 -18 96 -72 106 -110 9 -34 3 -37 -42 -18 -62 26
-158 23 -225 -8 -120 -55 -152 -183 -67 -265 47 -44 87 -61 173 -74 66 -10 86
-9 168 10 50 12 105 29 122 39 29 18 30 19 27 98 -4 100 -17 152 -56 234 -65
135 -206 227 -292 191z m144 -307 c20 -8 52 -29 70 -47 34 -33 67 -85 59 -94
-9 -8 -132 -23 -203 -23 -112 0 -174 28 -174 80 0 71 154 124 248 84z"/>
<path d="M6414 23305 c-63 -24 -99 -67 -98 -119 2 -101 70 -146 258 -170 133
-17 166 -32 166 -75 0 -53 -29 -66 -149 -66 -96 0 -111 3 -158 27 -28 15 -54
32 -58 38 -8 13 -72 13 -80 0 -9 -14 20 -64 55 -94 41 -34 115 -55 221 -63
186 -13 291 57 268 180 -14 79 -75 112 -248 132 -125 15 -175 32 -186 63 -14
46 29 72 120 72 66 0 88 -16 89 -66 1 -45 25 -57 57 -28 40 36 19 120 -39 156
-45 28 -159 34 -218 13z"/>
<path d="M9339 23298 c-8 -15 -12 -70 -10 -164 2 -164 -3 -175 -92 -219 -64
-31 -104 -26 -149 18 -48 49 -83 152 -103 305 -6 47 -9 52 -32 52 -16 0 -27
-7 -30 -20 -5 -19 -6 -19 -34 5 -52 43 -169 47 -249 7 -30 -15 -49 -18 -65
-12 -18 7 -25 4 -35 -16 -26 -48 26 -327 80 -435 23 -44 26 -45 59 -23 20 14
23 23 17 58 -3 22 -17 77 -32 121 -14 44 -28 107 -31 140 -5 54 -3 62 20 83
31 29 63 30 170 7 l84 -19 10 -65 c28 -172 123 -298 239 -316 33 -6 50 -1 108
29 77 40 91 43 100 20 13 -34 -7 -295 -30 -389 -22 -95 -76 -144 -139 -126
-46 12 -124 70 -172 127 -28 33 -43 44 -56 39 -30 -12 -33 -54 -6 -104 45 -85
177 -161 279 -161 41 0 55 5 84 31 86 75 119 212 119 489 1 209 -17 369 -54
493 -21 71 -31 80 -50 45z"/>
<path d="M10859 23298 c-8 -15 -12 -70 -10 -164 2 -164 -3 -175 -92 -219 -64
-31 -104 -26 -149 18 -48 49 -83 152 -103 305 -6 47 -9 52 -31 52 -35 0 -47
-39 -40 -130 13 -181 116 -335 237 -355 36 -6 51 -2 113 29 80 40 91 43 100
20 13 -34 -7 -295 -30 -389 -22 -95 -76 -144 -139 -126 -46 12 -124 70 -172
127 -28 33 -43 44 -56 39 -30 -12 -33 -54 -6 -104 45 -85 177 -161 279 -161
41 0 55 5 84 31 86 75 119 212 119 489 1 209 -17 369 -54 493 -21 71 -31 80
-50 45z"/>
<path d="M14859 23298 c-8 -15 -12 -70 -10 -164 2 -164 -3 -175 -92 -219 -64
-31 -104 -26 -149 18 -48 49 -83 152 -103 305 -6 47 -9 52 -31 52 -35 0 -47
-39 -40 -130 13 -181 116 -335 237 -355 36 -6 51 -2 113 29 80 40 91 43 100
20 13 -34 -7 -295 -30 -389 -22 -95 -76 -144 -139 -126 -46 12 -124 70 -172
127 -28 33 -43 44 -56 39 -30 -12 -33 -54 -6 -104 45 -85 177 -161 279 -161
41 0 55 5 84 31 86 75 119 212 119 489 1 209 -17 369 -54 493 -21 71 -31 80
-50 45z"/>
<path d="M7601 23274 c-61 -31 -77 -35 -93 -25 -13 8 -24 8 -38 1 -23 -12 -25
-46 -10 -205 15 -167 49 -246 113 -261 24 -5 27 -3 27 19 0 13 -9 71 -21 128
-13 63 -19 124 -17 158 4 47 10 59 41 87 47 43 99 54 135 27 69 -51 103 -143
107 -292 3 -110 12 -130 54 -116 28 9 41 49 41 131 0 198 -98 370 -217 381
-41 4 -60 -1 -122 -33z"/>
<path d="M13651 23274 c-61 -31 -77 -35 -93 -25 -13 8 -24 8 -38 1 -23 -12
-25 -46 -10 -205 15 -167 49 -246 113 -261 24 -5 27 -3 27 19 0 13 -9 71 -21
128 -13 63 -19 124 -17 158 4 47 10 59 41 87 47 43 99 54 135 27 69 -51 103
-143 107 -292 3 -110 12 -130 54 -116 28 9 41 49 41 131 0 198 -98 370 -217
381 -41 4 -60 -1 -122 -33z"/>
<path d="M16636 23294 c-21 -8 -44 -19 -51 -24 -8 -7 -21 -7 -37 -1 -22 8 -27
6 -38 -15 -26 -48 26 -327 80 -435 23 -44 26 -45 59 -23 20 14 23 23 17 58 -3
22 -17 77 -32 121 -14 44 -28 107 -31 140 -5 55 -3 62 20 84 31 28 75 30 165
7 84 -22 102 -21 102 7 0 32 -27 67 -66 83 -42 18 -137 17 -188 -2z"/>
<path d="M17084 23296 c-16 -12 -17 -27 -11 -162 8 -171 21 -264 45 -314 19
-40 38 -47 67 -26 25 18 23 96 -7 251 -11 61 -23 141 -27 179 -5 58 -9 70 -28
77 -13 5 -28 3 -39 -5z"/>
<path d="M12575 23251 c-28 -16 -69 -48 -93 -71 -23 -23 -42 -36 -42 -28 0 19
-59 74 -93 87 -41 16 -123 13 -157 -4 -24 -13 -33 -13 -50 -3 -36 23 -55 0
-55 -68 1 -133 16 -316 28 -334 25 -41 72 -36 81 8 3 15 2 64 -3 110 -5 53 -5
98 1 123 12 47 58 89 97 89 57 0 92 -47 131 -180 34 -115 45 -132 83 -128 31
3 32 4 31 53 -1 28 -8 70 -15 93 -12 40 -12 47 7 80 27 48 106 102 148 102 39
0 66 -26 98 -95 20 -44 22 -64 20 -171 -2 -106 0 -123 14 -128 47 -18 74 25
81 129 7 88 -9 166 -49 245 -59 119 -156 153 -263 91z"/>
<path d="M9677 23259 c-182 -43 -268 -227 -176 -376 27 -43 108 -90 170 -98
104 -14 223 36 276 116 37 56 44 156 16 220 -56 125 -150 170 -286 138z m143
-117 c92 -56 96 -124 12 -202 -59 -56 -115 -75 -169 -60 -76 21 -113 70 -113
147 0 47 4 56 35 87 39 40 114 68 160 60 17 -2 50 -17 75 -32z"/>
<path d="M17275 22919 c-56 -16 -74 -80 -34 -120 45 -45 146 5 135 66 -6 30
-39 66 -60 64 -6 0 -24 -5 -41 -10z"/>
<path d="M27912 20783 c-31 -12 -31 -52 -3 -225 16 -95 32 -209 35 -254 15
-200 86 -264 275 -251 146 11 215 62 215 160 0 138 -142 240 -335 241 l-87 0
-17 156 c-9 85 -18 161 -21 168 -3 12 -37 15 -62 5z m266 -427 c78 -21 136
-59 157 -102 l18 -38 -36 -32 c-65 -60 -174 -55 -245 11 -34 31 -37 38 -35 85
2 87 34 104 141 76z"/>
<path d="M33472 20783 c-31 -12 -31 -52 -3 -225 16 -95 32 -209 35 -254 15
-200 86 -264 275 -251 146 11 215 62 215 160 0 138 -142 240 -335 241 l-87 0
-17 156 c-9 85 -18 161 -21 168 -3 12 -37 15 -62 5z m266 -427 c78 -21 136
-59 157 -102 l18 -38 -36 -32 c-65 -60 -174 -55 -245 11 -34 31 -37 38 -35 85
2 87 34 104 141 76z"/>
<path d="M29780 20765 c-9 -11 -11 -37 -8 -87 3 -39 3 -89 1 -110 l-6 -37 -58
-7 c-45 -5 -60 -11 -64 -25 -4 -10 -3 -24 1 -30 10 -16 69 -39 103 -39 l29 0
4 -147 c3 -124 7 -156 25 -195 21 -47 34 -55 67 -42 15 6 16 28 10 200 l-7
194 52 0 c61 0 91 13 91 40 0 29 -39 50 -91 50 -44 0 -47 2 -53 31 -3 17 -6
64 -6 103 0 80 -17 116 -54 116 -13 0 -29 -7 -36 -15z"/>
<path d="M29450 20710 c0 -35 4 -42 27 -51 15 -5 38 -8 50 -4 51 12 7 95 -50
95 -25 0 -27 -3 -27 -40z"/>
<path d="M31440 20710 c0 -35 4 -42 27 -51 15 -5 38 -8 50 -4 51 12 7 95 -50
95 -25 0 -27 -3 -27 -40z"/>
<path d="M34010 20710 c0 -35 4 -42 27 -51 15 -5 38 -8 50 -4 51 12 7 95 -50
95 -25 0 -27 -3 -27 -40z"/>
<path d="M34230 20705 c-10 -12 -11 -77 -7 -308 3 -160 8 -302 12 -314 5 -17
15 -23 35 -23 48 0 54 39 52 329 -2 219 -4 260 -20 290 -19 40 -51 51 -72 26z"/>
<path d="M27507 20648 c-58 -16 -132 -89 -158 -156 -30 -77 -31 -189 -2 -253
61 -136 216 -211 369 -179 71 15 121 39 154 75 l25 27 -135 -6 c-195 -10 -293
20 -326 100 -20 48 -18 54 15 41 70 -26 220 31 269 103 20 30 23 44 20 97 -8
124 -104 187 -231 151z m103 -83 c20 -10 33 -28 41 -55 11 -37 10 -42 -10 -64
-38 -40 -128 -74 -184 -69 l-48 5 7 37 c12 68 52 123 108 147 40 17 51 17 86
-1z"/>
<path d="M30217 20648 c-58 -16 -132 -89 -158 -156 -30 -77 -31 -189 -2 -253
61 -136 216 -211 369 -179 71 15 121 39 154 75 l25 27 -135 -6 c-195 -10 -293
20 -326 100 -20 48 -18 54 15 41 70 -26 220 31 269 103 20 30 23 44 20 97 -8
124 -104 187 -231 151z m103 -83 c20 -10 33 -28 41 -55 11 -37 10 -42 -10 -64
-38 -40 -128 -74 -184 -69 l-48 5 7 37 c12 68 52 123 108 147 40 17 51 17 86
-1z"/>
<path d="M26543 20613 c-15 -22 -18 -47 -17 -133 3 -237 67 -397 168 -415 42
-8 81 11 143 70 l46 44 55 -49 c73 -65 114 -84 164 -76 140 23 226 147 199
289 -16 81 -48 183 -74 230 -41 73 -105 55 -92 -27 3 -21 22 -79 41 -130 47
-120 49 -174 10 -215 -62 -65 -136 -62 -199 8 -32 36 -49 71 -79 165 -16 48
-39 66 -62 47 -12 -10 -16 -32 -16 -81 0 -59 -4 -72 -30 -108 -32 -45 -80 -75
-104 -66 -37 14 -61 106 -77 299 -6 77 -15 148 -20 158 -14 25 -36 21 -56 -10z"/>
<path d="M29004 20575 c-63 -24 -99 -67 -98 -119 2 -101 70 -146 258 -170 133
-17 166 -32 166 -75 0 -53 -29 -66 -149 -66 -96 0 -111 3 -158 27 -28 15 -54
32 -58 38 -8 13 -72 13 -80 0 -9 -14 20 -64 55 -94 41 -34 115 -55 221 -63
186 -13 291 57 268 180 -14 79 -75 112 -248 132 -125 15 -175 32 -186 63 -14
46 29 72 120 72 66 0 88 -16 89 -66 1 -45 25 -57 57 -28 40 36 19 120 -39 156
-45 28 -159 34 -218 13z"/>
<path d="M29514 20566 c-16 -12 -17 -27 -11 -162 8 -171 21 -264 45 -314 19
-40 38 -47 67 -26 25 18 23 96 -7 251 -11 61 -23 141 -27 179 -5 58 -9 70 -28
77 -13 5 -28 3 -39 -5z"/>
<path d="M31504 20566 c-16 -12 -17 -27 -11 -162 8 -171 21 -264 45 -314 19
-40 38 -47 67 -26 25 18 23 96 -7 251 -11 61 -23 141 -27 179 -5 58 -9 70 -28
77 -13 5 -28 3 -39 -5z"/>
<path d="M34074 20566 c-16 -12 -17 -27 -11 -162 8 -171 21 -264 45 -314 19
-40 38 -47 67 -26 25 18 23 96 -7 251 -11 61 -23 141 -27 179 -5 58 -9 70 -28
77 -13 5 -28 3 -39 -5z"/>
<path d="M31105 20521 c-28 -16 -69 -48 -93 -71 -23 -23 -42 -36 -42 -28 0 19
-59 74 -93 87 -41 16 -123 13 -157 -4 -24 -13 -33 -13 -50 -3 -36 23 -55 0
-55 -68 1 -133 16 -316 28 -334 25 -41 72 -36 81 8 3 15 2 64 -3 110 -5 53 -5
98 1 123 12 47 58 89 97 89 57 0 92 -47 131 -180 34 -115 45 -132 83 -128 31
3 32 4 31 53 -1 28 -8 70 -15 93 -12 40 -12 47 7 80 27 48 106 102 148 102 39
0 66 -26 98 -95 20 -44 22 -64 20 -171 -2 -106 0 -123 14 -128 47 -18 74 25
81 129 7 88 -9 166 -49 245 -59 119 -156 153 -263 91z"/>
<path d="M32575 20521 c-28 -16 -69 -48 -93 -71 -23 -23 -42 -36 -42 -28 0 19
-59 74 -93 87 -41 16 -123 13 -157 -4 -24 -13 -33 -13 -50 -3 -36 23 -55 0
-55 -68 1 -133 16 -316 28 -334 25 -41 72 -36 81 8 3 15 2 64 -3 110 -5 53 -5
98 1 123 12 47 58 89 97 89 57 0 92 -47 131 -180 34 -115 45 -132 83 -128 31
3 32 4 31 53 -1 28 -8 70 -15 93 -12 40 -12 47 7 80 27 48 106 102 148 102 39
0 66 -26 98 -95 20 -44 22 -64 20 -171 -2 -106 0 -123 14 -128 47 -18 74 25
81 129 7 88 -9 166 -49 245 -59 119 -156 153 -263 91z"/>
<path d="M33117 20529 c-182 -43 -268 -227 -176 -376 27 -43 108 -90 170 -98
104 -14 223 36 276 116 37 56 44 156 16 220 -56 125 -150 170 -286 138z m143
-117 c92 -56 96 -124 12 -202 -59 -56 -115 -75 -169 -60 -76 21 -113 70 -113
147 0 47 4 56 35 87 39 40 114 68 160 60 17 -2 50 -17 75 -32z"/>
<path d="M33905 19107 c-4 -13 8 -104 26 -203 27 -148 33 -205 33 -329 l1
-150 28 -10 c24 -8 31 -6 43 10 8 10 14 30 14 44 0 52 14 56 64 22 96 -66 172
-86 231 -59 19 9 25 19 25 44 0 36 1 35 -84 49 -104 17 -196 73 -196 120 0 32
41 89 127 176 61 62 74 81 68 98 -5 16 -15 21 -39 21 -36 0 -70 -31 -125 -112
-27 -41 -68 -77 -75 -66 -1 2 -11 48 -21 103 -22 122 -52 224 -73 248 -21 24
-41 21 -47 -6z"/>
<path d="M31920 19070 c0 -35 4 -42 27 -51 15 -5 38 -8 50 -4 51 12 7 95 -50
95 -25 0 -27 -3 -27 -40z"/>
<path d="M34800 19070 c0 -35 4 -42 27 -51 15 -5 38 -8 50 -4 51 12 7 95 -50
95 -25 0 -27 -3 -27 -40z"/>
<path d="M35500 19070 c0 -35 4 -42 27 -51 15 -5 38 -8 50 -4 51 12 7 95 -50
95 -25 0 -27 -3 -27 -40z"/>
<path d="M26750 19065 c-10 -12 -11 -77 -7 -308 3 -160 8 -302 12 -314 5 -17
15 -23 35 -23 48 0 54 39 52 329 -2 219 -4 260 -20 290 -19 40 -51 51 -72 26z"/>
<path d="M31097 19008 c-58 -16 -132 -89 -158 -156 -30 -77 -31 -189 -2 -253
61 -136 216 -211 369 -179 71 15 121 39 154 75 l25 27 -135 -6 c-195 -10 -293
20 -326 100 -20 48 -18 54 15 41 70 -26 220 31 269 103 20 30 23 44 20 97 -8
124 -104 187 -231 151z m103 -83 c20 -10 33 -28 41 -55 11 -37 10 -42 -10 -64
-38 -40 -128 -74 -184 -69 l-48 5 7 37 c12 68 52 123 108 147 40 17 51 17 86
-1z"/>
<path d="M33527 19008 c-58 -16 -132 -89 -158 -156 -30 -77 -31 -189 -2 -253
61 -136 216 -211 369 -179 71 15 121 39 154 75 l25 27 -135 -6 c-195 -10 -293
20 -326 100 -20 48 -18 54 15 41 70 -26 220 31 269 103 20 30 23 44 20 97 -8
124 -104 187 -231 151z m103 -83 c20 -10 33 -28 41 -55 11 -37 10 -42 -10 -64
-38 -40 -128 -74 -184 -69 l-48 5 7 37 c12 68 52 123 108 147 40 17 51 17 86
-1z"/>
<path d="M27064 18991 c-26 -11 -54 -49 -54 -72 0 -9 7 -22 15 -29 13 -11 22
-10 51 3 31 15 37 15 74 1 45 -18 96 -72 106 -110 9 -34 3 -37 -42 -18 -62 26
-158 23 -225 -8 -120 -55 -152 -183 -67 -265 47 -44 87 -61 173 -74 66 -10 86
-9 168 10 50 12 105 29 122 39 29 18 30 19 27 98 -4 100 -17 152 -56 234 -65
135 -206 227 -292 191z m144 -307 c20 -8 52 -29 70 -47 34 -33 67 -85 59 -94
-9 -8 -132 -23 -203 -23 -112 0 -174 28 -174 80 0 71 154 124 248 84z"/>
<path d="M28474 18991 c-26 -11 -54 -49 -54 -72 0 -9 7 -22 15 -29 13 -11 22
-10 51 3 31 15 37 15 74 1 45 -18 96 -72 106 -110 9 -34 3 -37 -42 -18 -62 26
-158 23 -225 -8 -120 -55 -152 -183 -67 -265 47 -44 87 -61 173 -74 66 -10 86
-9 168 10 50 12 105 29 122 39 29 18 30 19 27 98 -4 100 -17 152 -56 234 -65
135 -206 227 -292 191z m144 -307 c20 -8 52 -29 70 -47 34 -33 67 -85 59 -94
-9 -8 -132 -23 -203 -23 -112 0 -174 28 -174 80 0 71 154 124 248 84z"/>
<path d="M29594 18991 c-26 -11 -54 -49 -54 -72 0 -9 7 -22 15 -29 13 -11 22
-10 51 3 31 15 37 15 74 1 45 -18 96 -72 106 -110 9 -34 3 -37 -42 -18 -62 26
-158 23 -225 -8 -120 -55 -152 -183 -67 -265 47 -44 87 -61 173 -74 66 -10 86
-9 168 10 50 12 105 29 122 39 29 18 30 19 27 98 -4 100 -17 152 -56 234 -65
135 -206 227 -292 191z m144 -307 c20 -8 52 -29 70 -47 34 -33 67 -85 59 -94
-9 -8 -132 -23 -203 -23 -112 0 -174 28 -174 80 0 71 154 124 248 84z"/>
<path d="M24669 18938 c-18 -29 -20 -44 -16 -128 8 -148 66 -283 141 -330 77
-47 149 -34 221 40 22 22 44 40 51 40 12 0 28 -34 39 -85 9 -43 23 -55 61 -55
32 0 34 2 34 33 0 17 -13 66 -29 107 -22 58 -30 99 -34 177 -7 120 -25 173
-59 173 -41 0 -48 -17 -48 -122 0 -111 -14 -150 -72 -204 -43 -40 -57 -45 -95
-29 -42 18 -77 67 -103 145 -18 54 -21 80 -17 151 2 47 0 94 -5 103 -15 26
-47 19 -69 -16z"/>
<path d="M26189 18938 c-18 -29 -20 -44 -16 -128 8 -148 66 -283 141 -330 77
-47 149 -34 221 40 22 22 44 40 51 40 12 0 28 -34 39 -85 9 -43 23 -55 61 -55
32 0 34 2 34 33 0 17 -13 66 -29 107 -22 58 -30 99 -34 177 -7 120 -25 173
-59 173 -41 0 -48 -17 -48 -122 0 -111 -14 -150 -72 -204 -43 -40 -57 -45 -95
-29 -42 18 -77 67 -103 145 -18 54 -21 80 -17 151 2 47 0 94 -5 103 -15 26
-47 19 -69 -16z"/>
<path d="M25639 18928 c-8 -15 -12 -70 -10 -164 2 -164 -3 -175 -92 -219 -64
-31 -104 -26 -149 18 -48 49 -83 152 -103 305 -6 47 -9 52 -31 52 -35 0 -47
-39 -40 -130 13 -181 116 -335 237 -355 36 -6 51 -2 113 29 39 20 77 36 83 36
20 0 26 -46 20 -141 -10 -128 -17 -169 -33 -169 -7 0 -20 -11 -29 -24 -13 -19
-14 -32 -4 -76 14 -63 3 -92 -41 -115 -23 -12 -39 -14 -65 -6 -46 12 -124 70
-172 127 -28 33 -43 44 -56 39 -30 -12 -33 -54 -6 -104 45 -86 177 -161 281
-161 49 0 54 3 98 49 l47 50 39 -24 c68 -40 186 -75 256 -75 108 0 152 49 184
202 13 60 13 110 5 323 -14 326 -33 421 -98 481 -48 44 -128 27 -205 -45 -105
-96 -135 -256 -63 -333 55 -59 119 -76 182 -48 25 11 51 20 58 20 37 0 55
-337 22 -421 -27 -69 -46 -83 -110 -76 -59 6 -209 60 -227 82 -9 11 -9 31 1
87 32 172 9 570 -42 741 -21 71 -31 80 -50 45z m395 -140 c11 -15 16 -45 16
-89 0 -118 -30 -159 -114 -159 -38 0 -48 4 -63 27 -37 57 -3 172 65 218 45 31
76 32 96 3z"/>
<path d="M29279 18928 c-8 -15 -12 -70 -10 -164 2 -164 -3 -175 -92 -219 -64
-31 -104 -26 -149 18 -48 49 -83 152 -103 305 -6 47 -9 52 -31 52 -35 0 -47
-39 -40 -130 13 -181 116 -335 237 -355 36 -6 51 -2 113 29 80 40 91 43 100
20 13 -34 -7 -295 -30 -389 -22 -95 -76 -144 -139 -126 -46 12 -124 70 -172
127 -28 33 -43 44 -56 39 -30 -12 -33 -54 -6 -104 45 -85 177 -161 279 -161
41 0 55 5 84 31 86 75 119 212 119 489 1 209 -17 369 -54 493 -21 71 -31 80
-50 45z"/>
<path d="M31984 18926 c-16 -12 -17 -27 -11 -162 8 -171 21 -264 45 -314 19
-40 38 -47 67 -26 25 18 23 96 -7 251 -11 61 -23 141 -27 179 -5 58 -9 70 -28
77 -13 5 -28 3 -39 -5z"/>
<path d="M32256 18924 c-21 -8 -44 -19 -51 -24 -8 -7 -21 -7 -37 -1 -22 8 -27
6 -38 -15 -26 -48 26 -327 80 -435 23 -44 26 -45 59 -23 20 14 23 23 17 58 -3
22 -17 77 -32 121 -14 44 -28 107 -31 140 -5 55 -3 62 20 84 31 28 75 30 165
7 33 -9 69 -16 80 -16 22 0 27 -33 37 -238 6 -104 16 -138 46 -147 49 -16 63
23 50 143 -5 53 -5 98 1 123 12 47 58 89 97 89 57 0 92 -47 131 -180 34 -115
45 -132 83 -128 31 3 32 4 31 53 -1 28 -8 70 -15 93 -12 40 -12 47 7 80 27 48
106 102 148 102 39 0 66 -26 98 -95 20 -44 22 -64 20 -172 -2 -111 -1 -122 16
-127 48 -15 72 25 79 129 7 88 -9 166 -49 245 -76 153 -215 161 -356 20 -23
-23 -42 -36 -42 -28 0 19 -59 74 -93 87 -41 16 -123 13 -157 -4 -24 -13 -33
-13 -50 -3 -15 10 -25 10 -38 2 -14 -9 -20 -6 -35 18 -9 16 -33 36 -52 44 -43
18 -138 17 -189 -2z"/>
<path d="M34864 18926 c-16 -12 -17 -27 -11 -162 8 -171 21 -264 45 -314 19
-40 38 -47 67 -26 25 18 23 96 -7 251 -11 61 -23 141 -27 179 -5 58 -9 70 -28
77 -13 5 -28 3 -39 -5z"/>
<path d="M35564 18926 c-16 -12 -17 -27 -11 -162 8 -171 21 -264 45 -314 19
-40 38 -47 67 -26 25 18 23 96 -7 251 -11 61 -23 141 -27 179 -5 58 -9 70 -28
77 -13 5 -28 3 -39 -5z"/>
<path d="M35861 18904 c-61 -31 -77 -35 -93 -25 -13 8 -24 8 -38 1 -23 -12
-25 -46 -10 -205 15 -167 49 -246 113 -261 24 -5 27 -3 27 19 0 13 -9 71 -21
128 -13 63 -19 124 -17 158 4 47 10 59 41 87 47 43 99 54 135 27 69 -51 103
-143 107 -292 3 -110 12 -130 54 -116 28 9 41 49 41 131 0 198 -98 370 -217
381 -41 4 -60 -1 -122 -33z"/>
<path d="M30555 18911 c-107 -48 -171 -182 -145 -305 14 -67 43 -113 93 -145
28 -19 37 -31 37 -53 0 -37 22 -88 46 -110 11 -10 49 -24 84 -32 70 -17 93
-36 88 -76 -3 -21 -9 -25 -41 -28 -29 -3 -49 4 -84 27 -48 32 -77 38 -103 21
-12 -7 -7 -18 26 -57 49 -58 76 -73 131 -73 53 0 91 14 126 48 23 22 27 34 27
78 0 82 -33 111 -148 129 -49 8 -72 27 -72 60 0 22 2 23 63 18 88 -7 173 12
194 44 23 35 7 43 -98 43 -206 0 -285 48 -283 169 1 106 66 181 156 181 54 0
83 -26 96 -85 l8 -39 21 21 c29 29 40 90 22 121 -34 60 -159 82 -244 43z"/>
<path d="M35155 18911 c-107 -48 -171 -182 -145 -305 14 -67 43 -113 93 -145
28 -19 37 -31 37 -53 0 -37 22 -88 46 -110 11 -10 49 -24 84 -32 70 -17 93
-36 88 -76 -3 -21 -9 -25 -41 -28 -29 -3 -49 4 -84 27 -48 32 -77 38 -103 21
-12 -7 -7 -18 26 -57 49 -58 76 -73 131 -73 53 0 91 14 126 48 23 22 27 34 27
78 0 82 -33 111 -148 129 -49 8 -72 27 -72 60 0 22 2 23 63 18 88 -7 173 12
194 44 23 35 7 43 -98 43 -206 0 -285 48 -283 169 1 106 66 181 156 181 54 0
83 -26 96 -85 l8 -39 21 21 c29 29 40 90 22 121 -34 60 -159 82 -244 43z"/>
<path d="M27945 18881 c-28 -16 -69 -48 -93 -71 -23 -23 -42 -36 -42 -28 0 19
-59 74 -93 87 -41 16 -123 13 -157 -4 -24 -13 -33 -13 -50 -3 -36 23 -55 0
-55 -68 1 -133 16 -316 28 -334 25 -41 72 -36 81 8 3 15 2 64 -3 110 -5 53 -5
98 1 123 12 47 58 89 97 89 57 0 92 -47 131 -180 34 -115 45 -132 83 -128 31
3 32 4 31 53 -1 28 -8 70 -15 93 -12 40 -12 47 7 80 27 48 106 102 148 102 39
0 66 -26 98 -95 20 -44 22 -64 20 -171 -2 -106 0 -123 14 -128 47 -18 74 25
81 129 7 88 -9 166 -49 245 -59 119 -156 153 -263 91z"/>
<path d="M31483 18837 c-9 -19 2 -48 72 -192 80 -166 127 -235 159 -235 27 0
64 63 112 191 26 68 55 135 66 148 37 49 13 81 -47 61 -28 -9 -38 -23 -72 -98
-23 -48 -46 -104 -53 -125 l-12 -39 -23 34 c-12 18 -34 65 -50 103 -40 102
-62 142 -87 159 -31 22 -53 20 -65 -7z"/>
<path d="M27158 17609 c-24 -14 -23 -76 2 -164 22 -76 50 -198 50 -220 0 -8
-30 2 -85 31 -93 48 -140 55 -198 30 -143 -61 -178 -318 -61 -454 45 -53 94
-69 160 -53 69 17 120 47 170 97 l45 44 9 -26 c6 -14 10 -29 10 -33 0 -19 40
-42 67 -39 34 4 33 -11 9 258 -27 301 -62 448 -124 513 -29 30 -30 31 -54 16z
m-87 -431 c19 -6 57 -26 85 -44 52 -32 52 -32 44 -73 -8 -43 -15 -55 -64 -109
-61 -67 -163 -94 -199 -54 -22 24 -47 97 -47 136 1 48 35 113 72 136 38 23 61
25 109 8z"/>
<path d="M25775 17467 c-4 -13 8 -104 26 -203 27 -148 33 -205 33 -329 l1
-150 28 -10 c24 -8 31 -6 43 10 8 10 14 30 14 44 0 52 14 56 64 22 96 -66 172
-86 231 -59 19 9 25 19 25 44 0 36 1 35 -84 49 -104 17 -196 73 -196 120 0 32
41 89 127 176 61 62 74 81 68 98 -5 16 -15 21 -39 21 -36 0 -70 -31 -125 -112
-27 -41 -68 -77 -75 -66 -1 2 -11 48 -21 103 -22 122 -52 224 -73 248 -21 24
-41 21 -47 -6z"/>
<path d="M34625 17467 c-4 -13 8 -104 26 -203 27 -148 33 -205 33 -329 l1
-150 28 -10 c24 -8 31 -6 43 10 8 10 14 30 14 44 0 52 14 56 64 22 96 -66 172
-86 231 -59 19 9 25 19 25 44 0 36 1 35 -84 49 -104 17 -196 73 -196 120 0 32
41 89 127 176 61 62 74 81 68 98 -5 16 -15 21 -39 21 -36 0 -70 -31 -125 -112
-27 -41 -68 -77 -75 -66 -1 2 -11 48 -21 103 -22 122 -52 224 -73 248 -21 24
-41 21 -47 -6z"/>
<path d="M29049 17370 c-87 -15 -138 -56 -124 -101 4 -11 18 -24 32 -30 21 -8
30 -5 59 21 32 28 41 30 109 30 66 0 76 -2 86 -21 14 -28 6 -81 -20 -123 -20
-32 -25 -34 -94 -40 -125 -12 -146 -17 -152 -37 -3 -10 -1 -27 5 -38 9 -18 17
-20 70 -14 33 3 60 2 60 -2 0 -4 -13 -24 -29 -44 -79 -101 -67 -163 38 -191
75 -20 255 13 302 56 22 20 25 53 7 77 -12 15 -18 15 -78 -7 -89 -32 -160 -41
-184 -23 -19 14 -19 16 -2 42 10 14 33 44 53 65 30 35 42 40 94 46 43 5 63 12
69 25 19 34 12 49 -28 55 l-39 6 15 53 c17 62 11 111 -20 150 -40 51 -111 65
-229 45z"/>
<path d="M33287 17368 c-58 -16 -132 -89 -158 -156 -30 -77 -31 -189 -2 -253
61 -136 216 -211 369 -179 71 15 121 39 154 75 l25 27 -135 -6 c-195 -10 -293
20 -326 100 -20 48 -18 54 15 41 70 -26 220 31 269 103 20 30 23 44 20 97 -8
124 -104 187 -231 151z m103 -83 c20 -10 33 -28 41 -55 11 -37 10 -42 -10 -64
-38 -40 -128 -74 -184 -69 l-48 5 7 37 c12 68 52 123 108 147 40 17 51 17 86
-1z"/>
<path d="M34247 17368 c-58 -16 -132 -89 -158 -156 -30 -77 -31 -189 -2 -253
61 -136 216 -211 369 -179 71 15 121 39 154 75 l25 27 -135 -6 c-195 -10 -293
20 -326 100 -20 48 -18 54 15 41 70 -26 220 31 269 103 20 30 23 44 20 97 -8
124 -104 187 -231 151z m103 -83 c20 -10 33 -28 41 -55 11 -37 10 -42 -10 -64
-38 -40 -128 -74 -184 -69 l-48 5 7 37 c12 68 52 123 108 147 40 17 51 17 86
-1z"/>
<path d="M28544 17351 c-26 -11 -54 -49 -54 -72 0 -9 7 -22 15 -29 13 -11 22
-10 51 3 31 15 37 15 74 1 45 -18 96 -72 106 -110 9 -34 3 -37 -42 -18 -62 26
-158 23 -225 -8 -120 -55 -152 -183 -67 -265 47 -44 87 -61 173 -74 66 -10 86
-9 168 10 50 12 105 29 122 39 29 18 30 19 27 98 -4 100 -17 152 -56 234 -65
135 -206 227 -292 191z m144 -307 c20 -8 52 -29 70 -47 34 -33 67 -85 59 -94
-9 -8 -132 -23 -203 -23 -112 0 -174 28 -174 80 0 71 154 124 248 84z"/>
<path d="M30474 17351 c-26 -11 -54 -49 -54 -72 0 -9 7 -22 15 -29 13 -11 22
-10 51 3 31 15 37 15 74 1 45 -18 96 -72 106 -110 9 -34 3 -37 -42 -18 -62 26
-158 23 -225 -8 -120 -55 -152 -183 -67 -265 47 -44 87 -61 173 -74 66 -10 86
-9 168 10 50 12 105 29 122 39 29 18 30 19 27 98 -4 100 -17 152 -56 234 -65
135 -206 227 -292 191z m144 -307 c20 -8 52 -29 70 -47 34 -33 67 -85 59 -94
-9 -8 -132 -23 -203 -23 -112 0 -174 28 -174 80 0 71 154 124 248 84z"/>
<path d="M31884 17351 c-26 -11 -54 -49 -54 -72 0 -9 7 -22 15 -29 13 -11 22
-10 51 3 31 15 37 15 74 1 45 -18 96 -72 106 -110 9 -34 3 -37 -42 -18 -62 26
-158 23 -225 -8 -120 -55 -152 -183 -67 -265 47 -44 87 -61 173 -74 66 -10 86
-9 168 10 50 12 105 29 122 39 29 18 30 19 27 98 -4 100 -17 152 -56 234 -65
135 -206 227 -292 191z m144 -307 c20 -8 52 -29 70 -47 34 -33 67 -85 59 -94
-9 -8 -132 -23 -203 -23 -112 0 -174 28 -174 80 0 71 154 124 248 84z"/>
<path d="M28229 17288 c-8 -15 -12 -70 -10 -164 2 -164 -3 -175 -92 -219 -64
-31 -104 -26 -149 18 -48 49 -83 152 -103 305 -6 47 -9 52 -31 52 -35 0 -47
-39 -40 -130 13 -181 116 -335 237 -355 36 -6 51 -2 113 29 80 40 91 43 100
20 13 -34 -7 -295 -30 -389 -22 -95 -76 -144 -139 -126 -46 12 -124 70 -172
127 -28 33 -43 44 -56 39 -30 -12 -33 -54 -6 -104 45 -85 177 -161 279 -161
41 0 55 5 84 31 86 75 119 212 119 489 1 209 -17 369 -54 493 -21 71 -31 80
-50 45z"/>
<path d="M33816 17284 c-21 -8 -44 -19 -51 -24 -8 -7 -21 -7 -37 -1 -22 8 -27
6 -38 -15 -26 -48 26 -327 80 -435 23 -44 26 -45 59 -23 20 14 23 23 17 58 -3
22 -17 77 -32 121 -14 44 -28 107 -31 140 -5 55 -3 62 20 84 31 28 75 30 165
7 84 -22 102 -21 102 7 0 32 -27 67 -66 83 -42 18 -137 17 -188 -2z"/>
<path d="M29945 17241 c-28 -16 -69 -48 -93 -71 -23 -23 -42 -36 -42 -28 0 19
-59 74 -93 87 -41 16 -123 13 -157 -4 -24 -13 -33 -13 -50 -3 -36 23 -55 0
-55 -68 1 -133 16 -316 28 -334 25 -41 72 -36 81 8 3 15 2 64 -3 110 -5 53 -5
98 1 123 12 47 58 89 97 89 57 0 92 -47 131 -180 34 -115 45 -132 83 -128 31
3 32 4 31 53 -1 28 -8 70 -15 93 -12 40 -12 47 7 80 27 48 106 102 148 102 39
0 66 -26 98 -95 20 -44 22 -64 20 -171 -2 -106 0 -123 14 -128 47 -18 74 25
81 129 7 88 -9 166 -49 245 -59 119 -156 153 -263 91z"/>
<path d="M31355 17241 c-28 -16 -69 -48 -93 -71 -23 -23 -42 -36 -42 -28 0 19
-59 74 -93 87 -41 16 -123 13 -157 -4 -24 -13 -33 -13 -50 -3 -36 23 -55 0
-55 -68 1 -133 16 -316 28 -334 25 -41 72 -36 81 8 3 15 2 64 -3 110 -5 53 -5
98 1 123 12 47 58 89 97 89 57 0 92 -47 131 -180 34 -115 45 -132 83 -128 31
3 32 4 31 53 -1 28 -8 70 -15 93 -12 40 -12 47 7 80 27 48 106 102 148 102 39
0 66 -26 98 -95 20 -44 22 -64 20 -171 -2 -106 0 -123 14 -128 47 -18 74 25
81 129 7 88 -9 166 -49 245 -59 119 -156 153 -263 91z"/>
<path d="M26457 17249 c-182 -43 -268 -227 -176 -376 27 -43 108 -90 170 -98
104 -14 223 36 276 116 37 56 44 156 16 220 -56 125 -150 170 -286 138z m143
-117 c92 -56 96 -124 12 -202 -59 -56 -115 -75 -169 -60 -76 21 -113 70 -113
147 0 47 4 56 35 87 39 40 114 68 160 60 17 -2 50 -17 75 -32z"/>
<path d="M32873 17245 c-111 -48 -202 -217 -174 -322 17 -61 72 -110 144 -127
18 -4 43 0 74 14 25 11 51 20 58 20 37 0 55 -337 22 -421 -27 -69 -46 -83
-110 -76 -64 6 -201 58 -241 90 -23 19 -31 35 -35 73 -5 44 -9 49 -33 52 -53
6 -70 -65 -33 -138 16 -31 69 -80 115 -108 63 -37 184 -72 252 -72 108 0 152
49 184 202 13 60 13 110 5 323 -14 326 -33 421 -98 481 -30 28 -80 31 -130 9z
m91 -97 c11 -15 16 -45 16 -89 0 -118 -30 -159 -114 -159 -38 0 -48 4 -63 27
-37 57 -3 172 65 218 45 31 76 32 96 3z"/>
<path d="M31598 15969 c-24 -14 -23 -76 2 -164 22 -76 50 -198 50 -220 0 -8
-30 2 -85 31 -93 48 -140 55 -198 30 -143 -61 -178 -318 -61 -454 45 -53 94
-69 160 -53 69 17 120 47 170 97 l45 44 9 -26 c6 -14 10 -29 10 -33 0 -19 40
-42 67 -39 34 4 33 -11 9 258 -27 301 -62 448 -124 513 -29 30 -30 31 -54 16z
m-87 -431 c19 -6 57 -26 85 -44 52 -32 52 -32 44 -73 -8 -43 -15 -55 -64 -109
-61 -67 -163 -94 -199 -54 -22 24 -47 97 -47 136 1 48 35 113 72 136 38 23 61
25 109 8z"/>
<path d="M28635 15827 c-4 -13 8 -104 26 -203 27 -148 33 -205 33 -329 l1
-150 28 -10 c24 -8 31 -6 43 10 8 10 14 30 14 44 0 52 14 56 64 22 96 -66 172
-86 231 -59 19 9 25 19 25 44 0 36 1 35 -84 49 -104 17 -196 73 -196 120 0 32
41 89 127 176 61 62 74 81 68 98 -5 16 -15 21 -39 21 -36 0 -70 -31 -125 -112
-27 -41 -68 -77 -75 -66 -1 2 -11 48 -21 103 -22 122 -52 224 -73 248 -21 24
-41 21 -47 -6z"/>
<path d="M29700 15785 c-10 -12 -11 -77 -7 -308 3 -160 8 -302 12 -314 5 -17
15 -23 35 -23 48 0 54 39 52 329 -2 219 -4 260 -20 290 -19 40 -51 51 -72 26z"/>
<path d="M29304 15711 c-26 -11 -54 -49 -54 -72 0 -9 7 -22 15 -29 13 -11 22
-10 51 3 31 15 37 15 74 1 45 -18 96 -72 106 -110 9 -34 3 -37 -42 -18 -62 26
-158 23 -225 -8 -120 -55 -152 -183 -67 -265 47 -44 87 -61 173 -74 66 -10 86
-9 168 10 50 12 105 29 122 39 29 18 30 19 27 98 -4 100 -17 152 -56 234 -65
135 -206 227 -292 191z m144 -307 c20 -8 52 -29 70 -47 34 -33 67 -85 59 -94
-9 -8 -132 -23 -203 -23 -112 0 -174 28 -174 80 0 71 154 124 248 84z"/>
<path d="M30844 15711 c-26 -11 -54 -49 -54 -72 0 -9 7 -22 15 -29 13 -11 22
-10 51 3 31 15 37 15 74 1 45 -18 96 -72 106 -110 9 -34 3 -37 -42 -18 -62 26
-158 23 -225 -8 -120 -55 -152 -183 -67 -265 47 -44 87 -61 173 -74 66 -10 86
-9 168 10 50 12 105 29 122 39 29 18 30 19 27 98 -4 100 -17 152 -56 234 -65
135 -206 227 -292 191z m144 -307 c20 -8 52 -29 70 -47 34 -33 67 -85 59 -94
-9 -8 -132 -23 -203 -23 -112 0 -174 28 -174 80 0 71 154 124 248 84z"/>
<path d="M31874 15646 c-16 -12 -17 -27 -11 -162 8 -171 21 -264 45 -314 19
-40 38 -47 67 -26 25 18 23 96 -7 251 -11 61 -23 141 -27 179 -5 58 -9 70 -28
77 -13 5 -28 3 -39 -5z"/>
<path d="M30315 15601 c-28 -16 -69 -48 -93 -71 -23 -23 -42 -36 -42 -28 0 19
-59 74 -93 87 -41 16 -123 13 -157 -4 -24 -13 -33 -13 -50 -3 -36 23 -55 0
-55 -68 1 -133 16 -316 28 -334 25 -41 72 -36 81 8 3 15 2 64 -3 110 -5 53 -5
98 1 123 12 47 58 89 97 89 57 0 92 -47 131 -180 34 -115 45 -132 83 -128 31
3 32 4 31 53 -1 28 -8 70 -15 93 -12 40 -12 47 7 80 27 48 106 102 148 102 39
0 66 -26 98 -95 20 -44 22 -64 20 -171 -2 -106 0 -123 14 -128 47 -18 74 25
81 129 7 88 -9 166 -49 245 -59 119 -156 153 -263 91z"/>
<path d="M32082 15343 c-37 -54 -46 -91 -33 -133 11 -38 51 -80 77 -80 21 0
70 47 84 80 10 25 10 39 1 72 -25 83 -92 114 -129 61z"/>
</g>
</svg>
